<mxfile host="app.diagrams.net" agent="Mozilla/5.0 (Windows NT 10.0; Win64; x64) AppleWebKit/537.36 (KHTML, like Gecko) Chrome/137.0.0.0 Safari/537.36" version="27.1.1">
  <diagram name="Page-1" id="qE2UqkFCbx_R0htO_TXS">
    <mxGraphModel dx="1783" dy="939" grid="0" gridSize="10" guides="1" tooltips="1" connect="1" arrows="1" fold="1" page="1" pageScale="1" pageWidth="827" pageHeight="1169" math="0" shadow="0">
      <root>
        <mxCell id="0" />
        <mxCell id="1" parent="0" />
        <mxCell id="5S47eN_YAXZxguMYoJv3-3" value="Начало" style="html=1;dashed=0;whitespace=wrap;shape=mxgraph.dfd.start" parent="1" vertex="1">
          <mxGeometry x="301" y="98" width="200" height="60" as="geometry" />
        </mxCell>
        <mxCell id="5S47eN_YAXZxguMYoJv3-4" value="" style="edgeStyle=orthogonalEdgeStyle;rounded=0;orthogonalLoop=1;jettySize=auto;html=1;endArrow=none;endFill=0;dashed=1;" parent="1" source="5S47eN_YAXZxguMYoJv3-5" target="5S47eN_YAXZxguMYoJv3-3" edge="1">
          <mxGeometry relative="1" as="geometry" />
        </mxCell>
        <mxCell id="5S47eN_YAXZxguMYoJv3-5" value="process_frame&lt;br&gt;&lt;br&gt;Вход: кадр, массив координат полигонов&lt;br&gt;Выход: обработанный кадр с результатом" style="html=1;dashed=0;whitespace=wrap;shape=partialRectangle;right=0;align=left;" parent="1" vertex="1">
          <mxGeometry x="533" y="83" width="30" height="90" as="geometry" />
        </mxCell>
        <mxCell id="5S47eN_YAXZxguMYoJv3-10" style="edgeStyle=orthogonalEdgeStyle;rounded=0;orthogonalLoop=1;jettySize=auto;html=1;exitX=1;exitY=0.5;exitDx=0;exitDy=0;endArrow=classic;endFill=1;entryX=0.5;entryY=0;entryDx=0;entryDy=0;" parent="1" source="5S47eN_YAXZxguMYoJv3-12" target="5S47eN_YAXZxguMYoJv3-48" edge="1">
          <mxGeometry relative="1" as="geometry">
            <mxPoint x="1290" y="578" as="targetPoint" />
          </mxGeometry>
        </mxCell>
        <mxCell id="5S47eN_YAXZxguMYoJv3-11" style="edgeStyle=orthogonalEdgeStyle;html=1;exitX=0.5;exitY=1;exitDx=0;exitDy=0;entryX=0.5;entryY=0;entryDx=0;entryDy=0;endArrow=classic;endFill=1;rounded=0;" parent="1" source="5S47eN_YAXZxguMYoJv3-12" target="5S47eN_YAXZxguMYoJv3-19" edge="1">
          <mxGeometry relative="1" as="geometry" />
        </mxCell>
        <mxCell id="5S47eN_YAXZxguMYoJv3-12" value="Объект уже обнаружен заранее&lt;div&gt;(dist &amp;lt; 100 &amp;amp;&amp;amp; IoU &amp;lt; 0.4)&lt;/div&gt;" style="shape=rhombus;html=1;dashed=0;whitespace=wrap;perimeter=rhombusPerimeter;" parent="1" vertex="1">
          <mxGeometry x="1032" y="468" width="200" height="127" as="geometry" />
        </mxCell>
        <mxCell id="5S47eN_YAXZxguMYoJv3-13" value="Да" style="text;html=1;align=center;verticalAlign=middle;resizable=0;points=[];autosize=1;strokeColor=none;" parent="1" vertex="1">
          <mxGeometry x="1242" y="504" width="30" height="20" as="geometry" />
        </mxCell>
        <mxCell id="5S47eN_YAXZxguMYoJv3-19" value="Присвоение нового id" style="html=1;dashed=0;whitespace=wrap;" parent="1" vertex="1">
          <mxGeometry x="1032" y="701" width="200" height="60" as="geometry" />
        </mxCell>
        <mxCell id="5S47eN_YAXZxguMYoJv3-21" value="Цикл по каждому человеку в bbox" style="shape=loopLimit;whiteSpace=wrap;html=1;strokeWidth=1;direction=west;" parent="1" vertex="1">
          <mxGeometry x="301" y="652" width="200" height="60" as="geometry" />
        </mxCell>
        <mxCell id="5S47eN_YAXZxguMYoJv3-22" value="Конец" style="html=1;dashed=0;whitespace=wrap;shape=mxgraph.dfd.start" parent="1" vertex="1">
          <mxGeometry x="301" y="837" width="200" height="60" as="geometry" />
        </mxCell>
        <mxCell id="5S47eN_YAXZxguMYoJv3-24" value="Проверить направление&lt;div&gt;входа человека&lt;/div&gt;" style="shape=process;whiteSpace=wrap;html=1;backgroundOutline=1;" parent="1" vertex="1">
          <mxGeometry x="301" y="462" width="200" height="60" as="geometry" />
        </mxCell>
        <mxCell id="5S47eN_YAXZxguMYoJv3-26" value="Цикл по каждому человеку в bbox" style="shape=loopLimit;whiteSpace=wrap;html=1;direction=east" parent="1" vertex="1">
          <mxGeometry x="301" y="370" width="200" height="60" as="geometry" />
        </mxCell>
        <mxCell id="5S47eN_YAXZxguMYoJv3-32" value="Обнаружение человек&amp;nbsp;&lt;div&gt;с помощью YOLO&lt;/div&gt;" style="shape=process;whiteSpace=wrap;html=1;backgroundOutline=1;" parent="1" vertex="1">
          <mxGeometry x="301" y="188" width="200" height="60" as="geometry" />
        </mxCell>
        <mxCell id="5S47eN_YAXZxguMYoJv3-33" value="Обновление трекера&amp;nbsp;" style="shape=process;whiteSpace=wrap;html=1;backgroundOutline=1;" parent="1" vertex="1">
          <mxGeometry x="301" y="278" width="200" height="60" as="geometry" />
        </mxCell>
        <mxCell id="5S47eN_YAXZxguMYoJv3-36" value="Проверить направление&lt;div&gt;выхода человека&lt;/div&gt;" style="shape=process;whiteSpace=wrap;html=1;backgroundOutline=1;" parent="1" vertex="1">
          <mxGeometry x="301" y="558" width="200" height="60" as="geometry" />
        </mxCell>
        <mxCell id="5S47eN_YAXZxguMYoJv3-37" value="Нарисовать результат в кадр" style="shape=process;whiteSpace=wrap;html=1;backgroundOutline=1;" parent="1" vertex="1">
          <mxGeometry x="301" y="745" width="200" height="60" as="geometry" />
        </mxCell>
        <mxCell id="5S47eN_YAXZxguMYoJv3-40" value="Начало" style="html=1;dashed=0;whitespace=wrap;shape=mxgraph.dfd.start" parent="1" vertex="1">
          <mxGeometry x="1032" y="188" width="200" height="60" as="geometry" />
        </mxCell>
        <mxCell id="5S47eN_YAXZxguMYoJv3-41" value="" style="edgeStyle=orthogonalEdgeStyle;rounded=0;orthogonalLoop=1;jettySize=auto;html=1;endArrow=none;endFill=0;dashed=1;" parent="1" source="5S47eN_YAXZxguMYoJv3-42" target="5S47eN_YAXZxguMYoJv3-40" edge="1">
          <mxGeometry relative="1" as="geometry" />
        </mxCell>
        <mxCell id="5S47eN_YAXZxguMYoJv3-42" value="update&lt;br&gt;&lt;br&gt;Вход: список ограничивающих&amp;nbsp;&lt;div&gt;прямоугольников объектов&lt;br&gt;Выход: список отслеживаемых объектов&lt;/div&gt;&lt;div&gt;&amp;nbsp;с координатами и ID&lt;/div&gt;" style="html=1;dashed=0;whitespace=wrap;shape=partialRectangle;right=0;align=left;" parent="1" vertex="1">
          <mxGeometry x="1264" y="173" width="30" height="90" as="geometry" />
        </mxCell>
        <mxCell id="5S47eN_YAXZxguMYoJv3-48" value="Обновление списка отслеживаемых объектов" style="shape=process;whiteSpace=wrap;html=1;backgroundOutline=1;" parent="1" vertex="1">
          <mxGeometry x="1262" y="586" width="200" height="60" as="geometry" />
        </mxCell>
        <mxCell id="5S47eN_YAXZxguMYoJv3-50" value="" style="endArrow=classic;html=1;rounded=0;exitX=0.5;exitY=1;exitDx=0;exitDy=0;" parent="1" source="5S47eN_YAXZxguMYoJv3-48" edge="1">
          <mxGeometry width="50" height="50" relative="1" as="geometry">
            <mxPoint x="914" y="659" as="sourcePoint" />
            <mxPoint x="1132" y="676" as="targetPoint" />
            <Array as="points">
              <mxPoint x="1362" y="676" />
            </Array>
          </mxGeometry>
        </mxCell>
        <mxCell id="5S47eN_YAXZxguMYoJv3-51" value="Удаление не наблюдаемых точек" style="html=1;dashed=0;whitespace=wrap;" parent="1" vertex="1">
          <mxGeometry x="1032" y="895" width="200" height="60" as="geometry" />
        </mxCell>
        <mxCell id="5S47eN_YAXZxguMYoJv3-53" value="Конец" style="html=1;dashed=0;whitespace=wrap;shape=mxgraph.dfd.start" parent="1" vertex="1">
          <mxGeometry x="1032" y="989" width="200" height="60" as="geometry" />
        </mxCell>
        <mxCell id="5S47eN_YAXZxguMYoJv3-57" style="edgeStyle=orthogonalEdgeStyle;html=1;exitX=0.5;exitY=1;exitDx=0;exitDy=0;entryX=0.5;entryY=0;entryDx=0;entryDy=0;endArrow=classic;endFill=1;rounded=0;" parent="1" source="5S47eN_YAXZxguMYoJv3-58" target="5S47eN_YAXZxguMYoJv3-60" edge="1">
          <mxGeometry relative="1" as="geometry" />
        </mxCell>
        <mxCell id="5S47eN_YAXZxguMYoJv3-58" value="Находится ли точка в&amp;nbsp;&lt;div&gt;первом&amp;nbsp;&lt;span style=&quot;background-color: transparent; color: light-dark(rgb(0, 0, 0), rgb(255, 255, 255));&quot;&gt;полигоне&lt;/span&gt;&lt;/div&gt;" style="shape=rhombus;html=1;dashed=0;whitespace=wrap;perimeter=rhombusPerimeter;" parent="1" vertex="1">
          <mxGeometry x="1857" y="320" width="200" height="78" as="geometry" />
        </mxCell>
        <mxCell id="5S47eN_YAXZxguMYoJv3-59" value="Нет" style="text;html=1;align=center;verticalAlign=middle;resizable=0;points=[];autosize=1;strokeColor=none;" parent="1" vertex="1">
          <mxGeometry x="2070" y="334" width="38" height="26" as="geometry" />
        </mxCell>
        <mxCell id="5S47eN_YAXZxguMYoJv3-60" value="Сохранить координаты в&lt;div&gt;person_entering[id]&lt;/div&gt;" style="html=1;dashed=0;whitespace=wrap;" parent="1" vertex="1">
          <mxGeometry x="1857" y="437" width="200" height="60" as="geometry" />
        </mxCell>
        <mxCell id="5S47eN_YAXZxguMYoJv3-62" value="Начало" style="html=1;dashed=0;whitespace=wrap;shape=mxgraph.dfd.start" parent="1" vertex="1">
          <mxGeometry x="1857" y="129" width="200" height="60" as="geometry" />
        </mxCell>
        <mxCell id="5S47eN_YAXZxguMYoJv3-63" value="" style="edgeStyle=orthogonalEdgeStyle;rounded=0;orthogonalLoop=1;jettySize=auto;html=1;endArrow=none;endFill=0;dashed=1;" parent="1" source="5S47eN_YAXZxguMYoJv3-64" target="5S47eN_YAXZxguMYoJv3-62" edge="1">
          <mxGeometry relative="1" as="geometry" />
        </mxCell>
        <mxCell id="5S47eN_YAXZxguMYoJv3-64" value="check_enter&lt;br&gt;&lt;br&gt;Вход: координат ограничивающего окна,&lt;div&gt;координат полигонов&lt;div&gt;Выход: значение count_enter&lt;/div&gt;&lt;/div&gt;" style="html=1;dashed=0;whitespace=wrap;shape=partialRectangle;right=0;align=left;" parent="1" vertex="1">
          <mxGeometry x="2089" y="114" width="30" height="90" as="geometry" />
        </mxCell>
        <mxCell id="5S47eN_YAXZxguMYoJv3-70" value="" style="endArrow=classic;html=1;rounded=0;entryX=0.5;entryY=0;entryDx=0;entryDy=0;exitX=0.5;exitY=1;exitDx=0;exitDy=0;" parent="1" source="5S47eN_YAXZxguMYoJv3-60" target="5S47eN_YAXZxguMYoJv3-74" edge="1">
          <mxGeometry width="50" height="50" relative="1" as="geometry">
            <mxPoint x="1739" y="490" as="sourcePoint" />
            <mxPoint x="1957" y="609" as="targetPoint" />
          </mxGeometry>
        </mxCell>
        <mxCell id="5S47eN_YAXZxguMYoJv3-71" value="Конец" style="html=1;dashed=0;whitespace=wrap;shape=mxgraph.dfd.start" parent="1" vertex="1">
          <mxGeometry x="1857" y="774" width="200" height="60" as="geometry" />
        </mxCell>
        <mxCell id="5S47eN_YAXZxguMYoJv3-74" value="id находится в&amp;nbsp;&lt;div&gt;person_entering&amp;nbsp;&lt;span style=&quot;background-color: transparent; color: light-dark(rgb(0, 0, 0), rgb(255, 255, 255));&quot;&gt;&amp;amp;&amp;amp; точка в&lt;/span&gt;&lt;div&gt;2-ом полигоне&lt;/div&gt;&lt;/div&gt;" style="shape=rhombus;html=1;dashed=0;whitespace=wrap;perimeter=rhombusPerimeter;" parent="1" vertex="1">
          <mxGeometry x="1857" y="540" width="200" height="72" as="geometry" />
        </mxCell>
        <mxCell id="5S47eN_YAXZxguMYoJv3-77" value="Нет" style="text;html=1;align=center;verticalAlign=middle;resizable=0;points=[];autosize=1;strokeColor=none;" parent="1" vertex="1">
          <mxGeometry x="2068" y="551" width="38" height="26" as="geometry" />
        </mxCell>
        <mxCell id="5S47eN_YAXZxguMYoJv3-78" value="Увеличить count_enter&lt;div&gt;на единицу&lt;div&gt;&lt;br&gt;&lt;/div&gt;&lt;/div&gt;" style="html=1;dashed=0;whitespace=wrap;" parent="1" vertex="1">
          <mxGeometry x="1857" y="648" width="200" height="60" as="geometry" />
        </mxCell>
        <mxCell id="5S47eN_YAXZxguMYoJv3-82" style="edgeStyle=orthogonalEdgeStyle;html=1;exitX=0.5;exitY=1;exitDx=0;exitDy=0;entryX=0.5;entryY=0;entryDx=0;entryDy=0;endArrow=classic;endFill=1;rounded=0;" parent="1" source="5S47eN_YAXZxguMYoJv3-83" target="5S47eN_YAXZxguMYoJv3-85" edge="1">
          <mxGeometry relative="1" as="geometry" />
        </mxCell>
        <mxCell id="5S47eN_YAXZxguMYoJv3-83" value="Находится ли точка в&amp;nbsp;&lt;div&gt;втором&amp;nbsp;&lt;span style=&quot;background-color: transparent; color: light-dark(rgb(0, 0, 0), rgb(255, 255, 255));&quot;&gt;полигоне&lt;/span&gt;&lt;/div&gt;" style="shape=rhombus;html=1;dashed=0;whitespace=wrap;perimeter=rhombusPerimeter;" parent="1" vertex="1">
          <mxGeometry x="2730" y="361" width="200" height="78" as="geometry" />
        </mxCell>
        <mxCell id="5S47eN_YAXZxguMYoJv3-84" value="Нет" style="text;html=1;align=center;verticalAlign=middle;resizable=0;points=[];autosize=1;strokeColor=none;" parent="1" vertex="1">
          <mxGeometry x="2943" y="375" width="38" height="26" as="geometry" />
        </mxCell>
        <mxCell id="5S47eN_YAXZxguMYoJv3-85" value="Сохранить координаты в&lt;div&gt;person_exting[id]&lt;/div&gt;" style="html=1;dashed=0;whitespace=wrap;" parent="1" vertex="1">
          <mxGeometry x="2730" y="478" width="200" height="60" as="geometry" />
        </mxCell>
        <mxCell id="5S47eN_YAXZxguMYoJv3-87" value="Начало" style="html=1;dashed=0;whitespace=wrap;shape=mxgraph.dfd.start" parent="1" vertex="1">
          <mxGeometry x="2730" y="170" width="200" height="60" as="geometry" />
        </mxCell>
        <mxCell id="5S47eN_YAXZxguMYoJv3-88" value="" style="edgeStyle=orthogonalEdgeStyle;rounded=0;orthogonalLoop=1;jettySize=auto;html=1;endArrow=none;endFill=0;dashed=1;" parent="1" source="5S47eN_YAXZxguMYoJv3-89" target="5S47eN_YAXZxguMYoJv3-87" edge="1">
          <mxGeometry relative="1" as="geometry" />
        </mxCell>
        <mxCell id="5S47eN_YAXZxguMYoJv3-89" value="check_exit&lt;br&gt;&lt;br&gt;Вход: координат ограничивающего окна,&lt;div&gt;координат полигонов&lt;div&gt;Выход: значение count_exit&lt;/div&gt;&lt;/div&gt;" style="html=1;dashed=0;whitespace=wrap;shape=partialRectangle;right=0;align=left;" parent="1" vertex="1">
          <mxGeometry x="2962" y="155" width="30" height="90" as="geometry" />
        </mxCell>
        <mxCell id="5S47eN_YAXZxguMYoJv3-92" value="" style="endArrow=classic;html=1;rounded=0;entryX=0.5;entryY=0;entryDx=0;entryDy=0;exitX=0.5;exitY=1;exitDx=0;exitDy=0;" parent="1" source="5S47eN_YAXZxguMYoJv3-85" target="5S47eN_YAXZxguMYoJv3-95" edge="1">
          <mxGeometry width="50" height="50" relative="1" as="geometry">
            <mxPoint x="2612" y="531" as="sourcePoint" />
            <mxPoint x="2830" y="650" as="targetPoint" />
          </mxGeometry>
        </mxCell>
        <mxCell id="5S47eN_YAXZxguMYoJv3-93" value="Конец" style="html=1;dashed=0;whitespace=wrap;shape=mxgraph.dfd.start" parent="1" vertex="1">
          <mxGeometry x="2730" y="814" width="200" height="60" as="geometry" />
        </mxCell>
        <mxCell id="5S47eN_YAXZxguMYoJv3-95" value="id находится в&amp;nbsp;&lt;div&gt;person_exiting&amp;nbsp;&lt;span style=&quot;background-color: transparent; color: light-dark(rgb(0, 0, 0), rgb(255, 255, 255));&quot;&gt;&amp;amp;&amp;amp; точка в&lt;/span&gt;&lt;div&gt;1-ом полигоне&lt;/div&gt;&lt;/div&gt;" style="shape=rhombus;html=1;dashed=0;whitespace=wrap;perimeter=rhombusPerimeter;" parent="1" vertex="1">
          <mxGeometry x="2730" y="581" width="200" height="72" as="geometry" />
        </mxCell>
        <mxCell id="5S47eN_YAXZxguMYoJv3-97" value="Нет" style="text;html=1;align=center;verticalAlign=middle;resizable=0;points=[];autosize=1;strokeColor=none;" parent="1" vertex="1">
          <mxGeometry x="2941" y="586" width="38" height="26" as="geometry" />
        </mxCell>
        <mxCell id="5S47eN_YAXZxguMYoJv3-98" value="Увеличить count_exit&lt;div&gt;на единицу&lt;div&gt;&lt;br&gt;&lt;/div&gt;&lt;/div&gt;" style="html=1;dashed=0;whitespace=wrap;" parent="1" vertex="1">
          <mxGeometry x="2730" y="685" width="200" height="60" as="geometry" />
        </mxCell>
        <mxCell id="F9vclEkzdY7GysqwmZfO-7" value="Начало" style="html=1;dashed=0;whitespace=wrap;shape=mxgraph.dfd.start" parent="1" vertex="1">
          <mxGeometry x="3366" y="112" width="200" height="60" as="geometry" />
        </mxCell>
        <mxCell id="F9vclEkzdY7GysqwmZfO-8" value="" style="edgeStyle=orthogonalEdgeStyle;rounded=0;orthogonalLoop=1;jettySize=auto;html=1;endArrow=none;endFill=0;dashed=1;" parent="1" source="F9vclEkzdY7GysqwmZfO-9" target="F9vclEkzdY7GysqwmZfO-7" edge="1">
          <mxGeometry relative="1" as="geometry" />
        </mxCell>
        <mxCell id="F9vclEkzdY7GysqwmZfO-9" value="train_model&lt;br&gt;&lt;br&gt;Вход: набор данных&lt;div&gt;для обучения&lt;div&gt;&lt;div&gt;Выход: обученная&amp;nbsp;&lt;span style=&quot;background-color: transparent; color: light-dark(rgb(0, 0, 0), rgb(255, 255, 255));&quot;&gt;модель&lt;/span&gt;&lt;/div&gt;&lt;/div&gt;&lt;/div&gt;" style="html=1;dashed=0;whitespace=wrap;shape=partialRectangle;right=0;align=left;" parent="1" vertex="1">
          <mxGeometry x="3598" y="97" width="30" height="90" as="geometry" />
        </mxCell>
        <mxCell id="F9vclEkzdY7GysqwmZfO-13" value="Конец" style="html=1;dashed=0;whitespace=wrap;shape=mxgraph.dfd.start" parent="1" vertex="1">
          <mxGeometry x="3748" y="788" width="200" height="60" as="geometry" />
        </mxCell>
        <mxCell id="F9vclEkzdY7GysqwmZfO-17" value="Да" style="text;html=1;align=center;verticalAlign=middle;resizable=0;points=[];autosize=1;strokeColor=none;" parent="1" vertex="1">
          <mxGeometry x="3960" y="391" width="33" height="26" as="geometry" />
        </mxCell>
        <mxCell id="F9vclEkzdY7GysqwmZfO-18" value="&lt;div&gt;&lt;div&gt;Сохранение обученной модели&lt;/div&gt;&lt;/div&gt;&lt;div&gt;&amp;nbsp;для использования&lt;/div&gt;" style="html=1;dashed=0;whitespace=wrap;" parent="1" vertex="1">
          <mxGeometry x="3748" y="690" width="200" height="60" as="geometry" />
        </mxCell>
        <mxCell id="F9vclEkzdY7GysqwmZfO-19" value="" style="endArrow=none;html=1;rounded=0;exitX=0.5;exitY=1;exitDx=0;exitDy=0;entryX=0.5;entryY=0;entryDx=0;entryDy=0;" parent="1" edge="1">
          <mxGeometry width="50" height="50" relative="1" as="geometry">
            <mxPoint x="4077" y="508" as="sourcePoint" />
            <mxPoint x="4077" y="532" as="targetPoint" />
          </mxGeometry>
        </mxCell>
        <mxCell id="F9vclEkzdY7GysqwmZfO-20" value="Разделение данных на три набора:&lt;div&gt;train, valid, test&lt;/div&gt;" style="html=1;dashed=0;whitespace=wrap;" parent="1" vertex="1">
          <mxGeometry x="3366" y="208" width="200" height="60" as="geometry" />
        </mxCell>
        <mxCell id="F9vclEkzdY7GysqwmZfO-21" value="Настройка гиперпараметров&lt;div&gt;&amp;nbsp;модели YOLOv8&lt;/div&gt;" style="html=1;dashed=0;whitespace=wrap;" parent="1" vertex="1">
          <mxGeometry x="3366" y="302" width="200" height="60" as="geometry" />
        </mxCell>
        <mxCell id="F9vclEkzdY7GysqwmZfO-24" value="A" style="ellipse;whiteSpace=wrap;html=1;aspect=fixed;" parent="1" vertex="1">
          <mxGeometry x="3426" y="397" width="80" height="80" as="geometry" />
        </mxCell>
        <mxCell id="F9vclEkzdY7GysqwmZfO-26" value="A" style="ellipse;whiteSpace=wrap;html=1;aspect=fixed;" parent="1" vertex="1">
          <mxGeometry x="3808" y="97" width="80" height="80" as="geometry" />
        </mxCell>
        <mxCell id="F9vclEkzdY7GysqwmZfO-29" value="Цикл по каждой эпохе" style="shape=loopLimit;whiteSpace=wrap;html=1;strokeWidth=1;direction=west;" parent="1" vertex="1">
          <mxGeometry x="3748" y="600" width="200" height="60" as="geometry" />
        </mxCell>
        <mxCell id="F9vclEkzdY7GysqwmZfO-32" value="Цикл по каждой эпохе" style="shape=loopLimit;whiteSpace=wrap;html=1;direction=east" parent="1" vertex="1">
          <mxGeometry x="3748" y="204" width="200" height="60" as="geometry" />
        </mxCell>
        <mxCell id="F9vclEkzdY7GysqwmZfO-34" value="Максимально ли mAP" style="shape=rhombus;html=1;dashed=0;whitespace=wrap;perimeter=rhombusPerimeter;" parent="1" vertex="1">
          <mxGeometry x="3748" y="378" width="200" height="78" as="geometry" />
        </mxCell>
        <mxCell id="F9vclEkzdY7GysqwmZfO-35" value="Сохранение файла веса" style="html=1;dashed=0;whitespace=wrap;" parent="1" vertex="1">
          <mxGeometry x="3930" y="471" width="200" height="60" as="geometry" />
        </mxCell>
        <mxCell id="F9vclEkzdY7GysqwmZfO-37" value="" style="endArrow=classic;html=1;rounded=0;exitX=1;exitY=0.5;exitDx=0;exitDy=0;entryX=0.5;entryY=0;entryDx=0;entryDy=0;" parent="1" source="F9vclEkzdY7GysqwmZfO-34" edge="1">
          <mxGeometry width="50" height="50" relative="1" as="geometry">
            <mxPoint x="3739" y="429" as="sourcePoint" />
            <mxPoint x="4032" y="471.9999999999999" as="targetPoint" />
            <Array as="points">
              <mxPoint x="4032" y="417" />
            </Array>
          </mxGeometry>
        </mxCell>
        <mxCell id="F9vclEkzdY7GysqwmZfO-40" value="Оценка модели на валидационном&lt;div&gt;наборе данных&lt;/div&gt;" style="html=1;dashed=0;whitespace=wrap;" parent="1" vertex="1">
          <mxGeometry x="3748" y="291" width="200" height="60" as="geometry" />
        </mxCell>
        <mxCell id="l2gteJCdMbn7B1WrmTqp-1" value="&lt;font style=&quot;font-size: 14px;&quot;&gt;Модуль пользовательского&amp;nbsp;&lt;/font&gt;&lt;div&gt;&lt;font style=&quot;font-size: 14px;&quot;&gt;интерфейса&lt;/font&gt;&lt;/div&gt;" style="shape=module;align=center;spacingLeft=20;align=center;verticalAlign=top;whiteSpace=wrap;html=1;" parent="1" vertex="1">
          <mxGeometry x="4266" y="284" width="213" height="69" as="geometry" />
        </mxCell>
        <mxCell id="8NyyX1iAX97NzKVfYHVh-1" value="&lt;font style=&quot;font-size: 14px;&quot;&gt;Модуль отслеживания объектов&lt;/font&gt;" style="shape=module;align=center;spacingLeft=20;align=center;verticalAlign=top;whiteSpace=wrap;html=1;" parent="1" vertex="1">
          <mxGeometry x="4629" y="440" width="213" height="69" as="geometry" />
        </mxCell>
        <mxCell id="8NyyX1iAX97NzKVfYHVh-2" value="&lt;font style=&quot;font-size: 14px;&quot;&gt;Модуль подсчета&amp;nbsp;&lt;/font&gt;&lt;div&gt;&lt;font style=&quot;font-size: 14px;&quot;&gt;количества человек&lt;/font&gt;&lt;/div&gt;" style="shape=module;align=center;spacingLeft=20;align=center;verticalAlign=top;whiteSpace=wrap;html=1;" parent="1" vertex="1">
          <mxGeometry x="4266" y="440" width="213" height="69" as="geometry" />
        </mxCell>
        <mxCell id="8NyyX1iAX97NzKVfYHVh-3" value="&lt;font style=&quot;font-size: 14px;&quot;&gt;Модель YOLOv8n&lt;/font&gt;" style="shape=module;align=center;spacingLeft=20;align=center;verticalAlign=top;whiteSpace=wrap;html=1;" parent="1" vertex="1">
          <mxGeometry x="4266" y="577" width="213" height="69" as="geometry" />
        </mxCell>
        <mxCell id="8NyyX1iAX97NzKVfYHVh-4" value="" style="endArrow=classic;html=1;rounded=0;exitX=0.5;exitY=1;exitDx=0;exitDy=0;entryX=0.5;entryY=0;entryDx=0;entryDy=0;" parent="1" source="l2gteJCdMbn7B1WrmTqp-1" target="8NyyX1iAX97NzKVfYHVh-2" edge="1">
          <mxGeometry width="50" height="50" relative="1" as="geometry">
            <mxPoint x="4140" y="441" as="sourcePoint" />
            <mxPoint x="4190" y="391" as="targetPoint" />
          </mxGeometry>
        </mxCell>
        <mxCell id="8NyyX1iAX97NzKVfYHVh-5" value="" style="endArrow=classic;html=1;rounded=0;exitX=1;exitY=0.5;exitDx=0;exitDy=0;entryX=0;entryY=0;entryDx=0;entryDy=35;entryPerimeter=0;" parent="1" source="8NyyX1iAX97NzKVfYHVh-2" target="8NyyX1iAX97NzKVfYHVh-1" edge="1">
          <mxGeometry width="50" height="50" relative="1" as="geometry">
            <mxPoint x="4140" y="441" as="sourcePoint" />
            <mxPoint x="4190" y="391" as="targetPoint" />
          </mxGeometry>
        </mxCell>
        <mxCell id="8NyyX1iAX97NzKVfYHVh-7" value="" style="endArrow=classic;html=1;rounded=0;entryX=0.5;entryY=0;entryDx=0;entryDy=0;exitX=0.5;exitY=1;exitDx=0;exitDy=0;" parent="1" source="8NyyX1iAX97NzKVfYHVh-2" target="8NyyX1iAX97NzKVfYHVh-3" edge="1">
          <mxGeometry width="50" height="50" relative="1" as="geometry">
            <mxPoint x="4350" y="413" as="sourcePoint" />
            <mxPoint x="4400" y="363" as="targetPoint" />
          </mxGeometry>
        </mxCell>
        <mxCell id="Pi0gO4SQnGJbYW_tCE5I-1" style="edgeStyle=none;html=1;exitX=0.5;exitY=0.5;exitDx=0;exitDy=30;exitPerimeter=0;entryX=0.5;entryY=0;entryDx=0;entryDy=0;endArrow=none;endFill=0;" parent="1" source="Pi0gO4SQnGJbYW_tCE5I-2" edge="1">
          <mxGeometry relative="1" as="geometry">
            <mxPoint x="5206" y="148" as="targetPoint" />
          </mxGeometry>
        </mxCell>
        <mxCell id="Pi0gO4SQnGJbYW_tCE5I-2" value="Начало" style="html=1;dashed=0;whitespace=wrap;shape=mxgraph.dfd.start" parent="1" vertex="1">
          <mxGeometry x="5106" y="58" width="200" height="60" as="geometry" />
        </mxCell>
        <mxCell id="Pi0gO4SQnGJbYW_tCE5I-5" style="edgeStyle=none;html=1;exitX=0.5;exitY=1;exitDx=0;exitDy=0;entryX=0.5;entryY=0;entryDx=0;entryDy=0;endArrow=none;endFill=0;" parent="1" edge="1">
          <mxGeometry relative="1" as="geometry">
            <mxPoint x="5206" y="208" as="sourcePoint" />
            <mxPoint x="5206" y="238" as="targetPoint" />
          </mxGeometry>
        </mxCell>
        <mxCell id="Pi0gO4SQnGJbYW_tCE5I-8" value="Конец" style="html=1;dashed=0;whitespace=wrap;shape=mxgraph.dfd.start" parent="1" vertex="1">
          <mxGeometry x="5106" y="531" width="200" height="60" as="geometry" />
        </mxCell>
        <mxCell id="Pi0gO4SQnGJbYW_tCE5I-9" style="edgeStyle=orthogonalEdgeStyle;rounded=0;html=1;exitX=0.5;exitY=1;exitDx=0;exitDy=0;endArrow=none;endFill=0;" parent="1" source="Pi0gO4SQnGJbYW_tCE5I-10" edge="1">
          <mxGeometry relative="1" as="geometry">
            <mxPoint x="5206" y="532" as="targetPoint" />
          </mxGeometry>
        </mxCell>
        <mxCell id="Pi0gO4SQnGJbYW_tCE5I-10" value="Сравнение актуальным с ожидаемым результатом" style="shape=process;whiteSpace=wrap;html=1;backgroundOutline=1;" parent="1" vertex="1">
          <mxGeometry x="5106" y="331" width="200" height="60" as="geometry" />
        </mxCell>
        <mxCell id="Pi0gO4SQnGJbYW_tCE5I-13" value="Определить эталонные значения" style="shape=process;whiteSpace=wrap;html=1;backgroundOutline=1;" parent="1" vertex="1">
          <mxGeometry x="5106" y="148" width="200" height="60" as="geometry" />
        </mxCell>
        <mxCell id="Pi0gO4SQnGJbYW_tCE5I-14" value="Подсчет количества человек" style="shape=process;whiteSpace=wrap;html=1;backgroundOutline=1;" parent="1" vertex="1">
          <mxGeometry x="5106" y="238" width="200" height="60" as="geometry" />
        </mxCell>
        <mxCell id="Pi0gO4SQnGJbYW_tCE5I-15" value="Вычисление метрики" style="shape=process;whiteSpace=wrap;html=1;backgroundOutline=1;" parent="1" vertex="1">
          <mxGeometry x="5106" y="424" width="200" height="60" as="geometry" />
        </mxCell>
        <mxCell id="Pi0gO4SQnGJbYW_tCE5I-17" style="edgeStyle=orthogonalEdgeStyle;rounded=0;html=1;exitX=0.5;exitY=1;exitDx=0;exitDy=0;endArrow=none;endFill=0;" parent="1" source="Pi0gO4SQnGJbYW_tCE5I-14" edge="1">
          <mxGeometry relative="1" as="geometry">
            <mxPoint x="5216" y="400" as="sourcePoint" />
            <mxPoint x="5206" y="332" as="targetPoint" />
          </mxGeometry>
        </mxCell>
        <mxCell id="CefcL413iXbaTPBpRzqz-3" value="Цикл по каждому объекту&lt;div&gt;текущего кадра&lt;/div&gt;" style="shape=loopLimit;whiteSpace=wrap;html=1;strokeWidth=1;direction=west;" parent="1" vertex="1">
          <mxGeometry x="1032" y="798" width="200" height="60" as="geometry" />
        </mxCell>
        <mxCell id="CefcL413iXbaTPBpRzqz-4" value="Цикл по каждому объекту&lt;div&gt;текущего кадра&lt;/div&gt;" style="shape=loopLimit;whiteSpace=wrap;html=1;direction=east" parent="1" vertex="1">
          <mxGeometry x="1032" y="278" width="200" height="60" as="geometry" />
        </mxCell>
        <mxCell id="oV1yNQ3prcVt2Y0p0CIy-1" value="" style="endArrow=classic;html=1;rounded=0;exitX=0.5;exitY=0.5;exitDx=0;exitDy=30;exitPerimeter=0;entryX=0.5;entryY=0;entryDx=0;entryDy=0;" parent="1" source="5S47eN_YAXZxguMYoJv3-3" target="5S47eN_YAXZxguMYoJv3-32" edge="1">
          <mxGeometry width="50" height="50" relative="1" as="geometry">
            <mxPoint x="392" y="350" as="sourcePoint" />
            <mxPoint x="442" y="300" as="targetPoint" />
          </mxGeometry>
        </mxCell>
        <mxCell id="oV1yNQ3prcVt2Y0p0CIy-2" value="" style="endArrow=classic;html=1;rounded=0;exitX=0.5;exitY=1;exitDx=0;exitDy=0;entryX=0.5;entryY=0;entryDx=0;entryDy=0;" parent="1" source="5S47eN_YAXZxguMYoJv3-32" target="5S47eN_YAXZxguMYoJv3-33" edge="1">
          <mxGeometry width="50" height="50" relative="1" as="geometry">
            <mxPoint x="478" y="236" as="sourcePoint" />
            <mxPoint x="478" y="266" as="targetPoint" />
          </mxGeometry>
        </mxCell>
        <mxCell id="oV1yNQ3prcVt2Y0p0CIy-3" value="" style="endArrow=classic;html=1;rounded=0;exitX=0.5;exitY=1;exitDx=0;exitDy=0;entryX=0.5;entryY=0;entryDx=0;entryDy=0;" parent="1" source="5S47eN_YAXZxguMYoJv3-33" target="5S47eN_YAXZxguMYoJv3-26" edge="1">
          <mxGeometry width="50" height="50" relative="1" as="geometry">
            <mxPoint x="489" y="305" as="sourcePoint" />
            <mxPoint x="489" y="335" as="targetPoint" />
          </mxGeometry>
        </mxCell>
        <mxCell id="oV1yNQ3prcVt2Y0p0CIy-4" value="" style="endArrow=classic;html=1;rounded=0;exitX=0.5;exitY=1;exitDx=0;exitDy=0;entryX=0.5;entryY=0;entryDx=0;entryDy=0;" parent="1" source="5S47eN_YAXZxguMYoJv3-26" target="5S47eN_YAXZxguMYoJv3-24" edge="1">
          <mxGeometry width="50" height="50" relative="1" as="geometry">
            <mxPoint x="448" y="427" as="sourcePoint" />
            <mxPoint x="448" y="457" as="targetPoint" />
          </mxGeometry>
        </mxCell>
        <mxCell id="oV1yNQ3prcVt2Y0p0CIy-5" value="" style="endArrow=classic;html=1;rounded=0;exitX=0.5;exitY=1;exitDx=0;exitDy=0;entryX=0.5;entryY=0;entryDx=0;entryDy=0;" parent="1" source="5S47eN_YAXZxguMYoJv3-24" target="5S47eN_YAXZxguMYoJv3-36" edge="1">
          <mxGeometry width="50" height="50" relative="1" as="geometry">
            <mxPoint x="535" y="475" as="sourcePoint" />
            <mxPoint x="535" y="505" as="targetPoint" />
          </mxGeometry>
        </mxCell>
        <mxCell id="oV1yNQ3prcVt2Y0p0CIy-6" value="" style="endArrow=classic;html=1;rounded=0;exitX=0.5;exitY=1;exitDx=0;exitDy=0;entryX=0.5;entryY=1;entryDx=0;entryDy=0;" parent="1" source="5S47eN_YAXZxguMYoJv3-36" target="5S47eN_YAXZxguMYoJv3-21" edge="1">
          <mxGeometry width="50" height="50" relative="1" as="geometry">
            <mxPoint x="552" y="932" as="sourcePoint" />
            <mxPoint x="552" y="962" as="targetPoint" />
          </mxGeometry>
        </mxCell>
        <mxCell id="oV1yNQ3prcVt2Y0p0CIy-7" value="" style="endArrow=classic;html=1;rounded=0;exitX=0.5;exitY=0;exitDx=0;exitDy=0;entryX=0.5;entryY=0;entryDx=0;entryDy=0;" parent="1" source="5S47eN_YAXZxguMYoJv3-21" target="5S47eN_YAXZxguMYoJv3-37" edge="1">
          <mxGeometry width="50" height="50" relative="1" as="geometry">
            <mxPoint x="488" y="824" as="sourcePoint" />
            <mxPoint x="488" y="854" as="targetPoint" />
          </mxGeometry>
        </mxCell>
        <mxCell id="oV1yNQ3prcVt2Y0p0CIy-8" value="" style="endArrow=classic;html=1;rounded=0;exitX=0.5;exitY=1;exitDx=0;exitDy=0;entryX=0.5;entryY=0.5;entryDx=0;entryDy=-30;entryPerimeter=0;" parent="1" source="5S47eN_YAXZxguMYoJv3-37" target="5S47eN_YAXZxguMYoJv3-22" edge="1">
          <mxGeometry width="50" height="50" relative="1" as="geometry">
            <mxPoint x="616" y="860" as="sourcePoint" />
            <mxPoint x="616" y="890" as="targetPoint" />
          </mxGeometry>
        </mxCell>
        <mxCell id="oV1yNQ3prcVt2Y0p0CIy-9" value="" style="endArrow=classic;html=1;rounded=0;exitX=0.5;exitY=0.5;exitDx=0;exitDy=30;exitPerimeter=0;entryX=0.5;entryY=0;entryDx=0;entryDy=0;" parent="1" source="5S47eN_YAXZxguMYoJv3-40" target="CefcL413iXbaTPBpRzqz-4" edge="1">
          <mxGeometry width="50" height="50" relative="1" as="geometry">
            <mxPoint x="1429" y="305" as="sourcePoint" />
            <mxPoint x="1429" y="335" as="targetPoint" />
          </mxGeometry>
        </mxCell>
        <mxCell id="oV1yNQ3prcVt2Y0p0CIy-10" value="" style="endArrow=classic;html=1;rounded=0;exitX=0.5;exitY=1;exitDx=0;exitDy=0;entryX=0.5;entryY=0;entryDx=0;entryDy=0;" parent="1" source="CefcL413iXbaTPBpRzqz-4" target="LZMMXDJ1hkePxHOvZa1q-45" edge="1">
          <mxGeometry width="50" height="50" relative="1" as="geometry">
            <mxPoint x="1407" y="309" as="sourcePoint" />
            <mxPoint x="1132" y="367.0000000000001" as="targetPoint" />
          </mxGeometry>
        </mxCell>
        <mxCell id="oV1yNQ3prcVt2Y0p0CIy-11" value="" style="endArrow=classic;html=1;rounded=0;exitX=0.5;exitY=1;exitDx=0;exitDy=0;entryX=0.5;entryY=0;entryDx=0;entryDy=0;" parent="1" source="LZMMXDJ1hkePxHOvZa1q-45" target="5S47eN_YAXZxguMYoJv3-12" edge="1">
          <mxGeometry width="50" height="50" relative="1" as="geometry">
            <mxPoint x="1132" y="427" as="sourcePoint" />
            <mxPoint x="1267" y="484" as="targetPoint" />
          </mxGeometry>
        </mxCell>
        <mxCell id="oV1yNQ3prcVt2Y0p0CIy-12" value="" style="endArrow=classic;html=1;rounded=0;exitX=0.5;exitY=1;exitDx=0;exitDy=0;entryX=0.5;entryY=1;entryDx=0;entryDy=0;" parent="1" source="5S47eN_YAXZxguMYoJv3-19" target="CefcL413iXbaTPBpRzqz-3" edge="1">
          <mxGeometry width="50" height="50" relative="1" as="geometry">
            <mxPoint x="1344" y="816" as="sourcePoint" />
            <mxPoint x="1344" y="846" as="targetPoint" />
          </mxGeometry>
        </mxCell>
        <mxCell id="oV1yNQ3prcVt2Y0p0CIy-13" value="" style="endArrow=classic;html=1;rounded=0;exitX=0.5;exitY=0;exitDx=0;exitDy=0;entryX=0.5;entryY=0;entryDx=0;entryDy=0;" parent="1" source="CefcL413iXbaTPBpRzqz-3" target="5S47eN_YAXZxguMYoJv3-51" edge="1">
          <mxGeometry width="50" height="50" relative="1" as="geometry">
            <mxPoint x="1441" y="823" as="sourcePoint" />
            <mxPoint x="1441" y="853" as="targetPoint" />
          </mxGeometry>
        </mxCell>
        <mxCell id="oV1yNQ3prcVt2Y0p0CIy-14" value="" style="endArrow=classic;html=1;rounded=0;exitX=0.5;exitY=1;exitDx=0;exitDy=0;entryX=0.5;entryY=0.5;entryDx=0;entryDy=-30;entryPerimeter=0;" parent="1" source="5S47eN_YAXZxguMYoJv3-51" target="5S47eN_YAXZxguMYoJv3-53" edge="1">
          <mxGeometry width="50" height="50" relative="1" as="geometry">
            <mxPoint x="1315" y="929" as="sourcePoint" />
            <mxPoint x="1315" y="959" as="targetPoint" />
          </mxGeometry>
        </mxCell>
        <mxCell id="oV1yNQ3prcVt2Y0p0CIy-15" value="" style="endArrow=classic;html=1;rounded=0;exitX=0.5;exitY=0.5;exitDx=0;exitDy=30;exitPerimeter=0;entryX=0.5;entryY=0;entryDx=0;entryDy=0;" parent="1" source="5S47eN_YAXZxguMYoJv3-62" edge="1">
          <mxGeometry width="50" height="50" relative="1" as="geometry">
            <mxPoint x="2239" y="379" as="sourcePoint" />
            <mxPoint x="1957" y="224" as="targetPoint" />
          </mxGeometry>
        </mxCell>
        <mxCell id="oV1yNQ3prcVt2Y0p0CIy-16" value="" style="endArrow=classic;html=1;rounded=0;exitX=0.5;exitY=1;exitDx=0;exitDy=0;entryX=0.5;entryY=0;entryDx=0;entryDy=0;" parent="1" target="5S47eN_YAXZxguMYoJv3-58" edge="1">
          <mxGeometry width="50" height="50" relative="1" as="geometry">
            <mxPoint x="1957" y="284" as="sourcePoint" />
            <mxPoint x="2057" y="439" as="targetPoint" />
          </mxGeometry>
        </mxCell>
        <mxCell id="oV1yNQ3prcVt2Y0p0CIy-17" value="" style="endArrow=classic;html=1;rounded=0;exitX=0.5;exitY=1;exitDx=0;exitDy=0;entryX=0.5;entryY=0;entryDx=0;entryDy=0;" parent="1" source="5S47eN_YAXZxguMYoJv3-74" target="5S47eN_YAXZxguMYoJv3-78" edge="1">
          <mxGeometry width="50" height="50" relative="1" as="geometry">
            <mxPoint x="2107" y="523" as="sourcePoint" />
            <mxPoint x="2107" y="553" as="targetPoint" />
          </mxGeometry>
        </mxCell>
        <mxCell id="oV1yNQ3prcVt2Y0p0CIy-18" value="" style="endArrow=classic;html=1;rounded=0;exitX=0.5;exitY=1;exitDx=0;exitDy=0;entryX=0.5;entryY=0.5;entryDx=0;entryDy=-30;entryPerimeter=0;" parent="1" source="5S47eN_YAXZxguMYoJv3-78" target="5S47eN_YAXZxguMYoJv3-71" edge="1">
          <mxGeometry width="50" height="50" relative="1" as="geometry">
            <mxPoint x="2102" y="667" as="sourcePoint" />
            <mxPoint x="2102" y="697" as="targetPoint" />
          </mxGeometry>
        </mxCell>
        <mxCell id="oV1yNQ3prcVt2Y0p0CIy-19" value="" style="endArrow=classic;html=1;rounded=0;exitX=0.5;exitY=0.5;exitDx=0;exitDy=30;exitPerimeter=0;entryX=0.5;entryY=0;entryDx=0;entryDy=0;" parent="1" source="5S47eN_YAXZxguMYoJv3-87" edge="1">
          <mxGeometry width="50" height="50" relative="1" as="geometry">
            <mxPoint x="2937" y="156" as="sourcePoint" />
            <mxPoint x="2830" y="265" as="targetPoint" />
          </mxGeometry>
        </mxCell>
        <mxCell id="oV1yNQ3prcVt2Y0p0CIy-20" value="" style="endArrow=classic;html=1;rounded=0;exitX=0.5;exitY=1;exitDx=0;exitDy=0;" parent="1" target="5S47eN_YAXZxguMYoJv3-83" edge="1">
          <mxGeometry width="50" height="50" relative="1" as="geometry">
            <mxPoint x="2830" y="325" as="sourcePoint" />
            <mxPoint x="2983" y="405" as="targetPoint" />
          </mxGeometry>
        </mxCell>
        <mxCell id="oV1yNQ3prcVt2Y0p0CIy-21" value="" style="endArrow=classic;html=1;rounded=0;exitX=0.5;exitY=1;exitDx=0;exitDy=0;entryX=0.5;entryY=0;entryDx=0;entryDy=0;" parent="1" source="5S47eN_YAXZxguMYoJv3-95" target="5S47eN_YAXZxguMYoJv3-98" edge="1">
          <mxGeometry width="50" height="50" relative="1" as="geometry">
            <mxPoint x="2978" y="473" as="sourcePoint" />
            <mxPoint x="2978" y="503" as="targetPoint" />
          </mxGeometry>
        </mxCell>
        <mxCell id="oV1yNQ3prcVt2Y0p0CIy-22" value="" style="endArrow=classic;html=1;rounded=0;exitX=0.5;exitY=1;exitDx=0;exitDy=0;entryX=0.5;entryY=0.5;entryDx=0;entryDy=-30;entryPerimeter=0;" parent="1" source="5S47eN_YAXZxguMYoJv3-98" target="5S47eN_YAXZxguMYoJv3-93" edge="1">
          <mxGeometry width="50" height="50" relative="1" as="geometry">
            <mxPoint x="3097" y="664" as="sourcePoint" />
            <mxPoint x="3097" y="694" as="targetPoint" />
          </mxGeometry>
        </mxCell>
        <mxCell id="oV1yNQ3prcVt2Y0p0CIy-23" value="" style="endArrow=classic;html=1;rounded=0;exitX=0.5;exitY=0.5;exitDx=0;exitDy=30;exitPerimeter=0;entryX=0.5;entryY=0;entryDx=0;entryDy=0;" parent="1" source="F9vclEkzdY7GysqwmZfO-7" target="F9vclEkzdY7GysqwmZfO-20" edge="1">
          <mxGeometry width="50" height="50" relative="1" as="geometry">
            <mxPoint x="3642" y="290" as="sourcePoint" />
            <mxPoint x="3642" y="320" as="targetPoint" />
          </mxGeometry>
        </mxCell>
        <mxCell id="oV1yNQ3prcVt2Y0p0CIy-24" value="" style="endArrow=classic;html=1;rounded=0;exitX=0.5;exitY=1;exitDx=0;exitDy=0;entryX=0.5;entryY=0;entryDx=0;entryDy=0;" parent="1" source="F9vclEkzdY7GysqwmZfO-20" target="F9vclEkzdY7GysqwmZfO-21" edge="1">
          <mxGeometry width="50" height="50" relative="1" as="geometry">
            <mxPoint x="3648" y="316" as="sourcePoint" />
            <mxPoint x="3648" y="346" as="targetPoint" />
          </mxGeometry>
        </mxCell>
        <mxCell id="oV1yNQ3prcVt2Y0p0CIy-25" value="" style="endArrow=classic;html=1;rounded=0;exitX=0.5;exitY=1;exitDx=0;exitDy=0;entryX=0.5;entryY=0;entryDx=0;entryDy=0;" parent="1" source="F9vclEkzdY7GysqwmZfO-21" target="F9vclEkzdY7GysqwmZfO-24" edge="1">
          <mxGeometry width="50" height="50" relative="1" as="geometry">
            <mxPoint x="3664" y="343" as="sourcePoint" />
            <mxPoint x="3664" y="373" as="targetPoint" />
          </mxGeometry>
        </mxCell>
        <mxCell id="oV1yNQ3prcVt2Y0p0CIy-26" value="" style="endArrow=classic;html=1;rounded=0;exitX=0.5;exitY=1;exitDx=0;exitDy=0;entryX=0.5;entryY=0;entryDx=0;entryDy=0;" parent="1" source="F9vclEkzdY7GysqwmZfO-26" target="F9vclEkzdY7GysqwmZfO-32" edge="1">
          <mxGeometry width="50" height="50" relative="1" as="geometry">
            <mxPoint x="3794" y="370" as="sourcePoint" />
            <mxPoint x="3794" y="400" as="targetPoint" />
          </mxGeometry>
        </mxCell>
        <mxCell id="oV1yNQ3prcVt2Y0p0CIy-27" value="" style="endArrow=classic;html=1;rounded=0;exitX=0.5;exitY=1;exitDx=0;exitDy=0;entryX=0.5;entryY=0;entryDx=0;entryDy=0;" parent="1" source="F9vclEkzdY7GysqwmZfO-32" target="F9vclEkzdY7GysqwmZfO-40" edge="1">
          <mxGeometry width="50" height="50" relative="1" as="geometry">
            <mxPoint x="3803" y="300" as="sourcePoint" />
            <mxPoint x="3803" y="330" as="targetPoint" />
          </mxGeometry>
        </mxCell>
        <mxCell id="oV1yNQ3prcVt2Y0p0CIy-28" value="" style="endArrow=classic;html=1;rounded=0;exitX=0.5;exitY=1;exitDx=0;exitDy=0;entryX=0.5;entryY=0;entryDx=0;entryDy=0;" parent="1" source="F9vclEkzdY7GysqwmZfO-40" target="F9vclEkzdY7GysqwmZfO-34" edge="1">
          <mxGeometry width="50" height="50" relative="1" as="geometry">
            <mxPoint x="3904" y="368" as="sourcePoint" />
            <mxPoint x="3904" y="398" as="targetPoint" />
          </mxGeometry>
        </mxCell>
        <mxCell id="oV1yNQ3prcVt2Y0p0CIy-29" value="" style="endArrow=classic;html=1;rounded=0;exitX=0.5;exitY=1;exitDx=0;exitDy=0;entryX=0.5;entryY=1;entryDx=0;entryDy=0;" parent="1" source="F9vclEkzdY7GysqwmZfO-34" target="F9vclEkzdY7GysqwmZfO-29" edge="1">
          <mxGeometry width="50" height="50" relative="1" as="geometry">
            <mxPoint x="3841" y="588" as="sourcePoint" />
            <mxPoint x="3841" y="618" as="targetPoint" />
          </mxGeometry>
        </mxCell>
        <mxCell id="oV1yNQ3prcVt2Y0p0CIy-30" value="" style="endArrow=classic;html=1;rounded=0;exitX=0.5;exitY=1;exitDx=0;exitDy=0;" parent="1" source="F9vclEkzdY7GysqwmZfO-35" edge="1">
          <mxGeometry width="50" height="50" relative="1" as="geometry">
            <mxPoint x="3933" y="521" as="sourcePoint" />
            <mxPoint x="3848" y="566" as="targetPoint" />
            <Array as="points">
              <mxPoint x="4030" y="566" />
              <mxPoint x="3943" y="566" />
            </Array>
          </mxGeometry>
        </mxCell>
        <mxCell id="oV1yNQ3prcVt2Y0p0CIy-31" value="" style="endArrow=classic;html=1;rounded=0;exitX=0.5;exitY=0;exitDx=0;exitDy=0;entryX=0.5;entryY=0;entryDx=0;entryDy=0;" parent="1" source="F9vclEkzdY7GysqwmZfO-29" target="F9vclEkzdY7GysqwmZfO-18" edge="1">
          <mxGeometry width="50" height="50" relative="1" as="geometry">
            <mxPoint x="4038" y="767" as="sourcePoint" />
            <mxPoint x="4038" y="797" as="targetPoint" />
          </mxGeometry>
        </mxCell>
        <mxCell id="oV1yNQ3prcVt2Y0p0CIy-32" value="" style="endArrow=classic;html=1;rounded=0;exitX=0.5;exitY=1;exitDx=0;exitDy=0;entryX=0.5;entryY=0.5;entryDx=0;entryDy=-30;entryPerimeter=0;" parent="1" source="F9vclEkzdY7GysqwmZfO-18" target="F9vclEkzdY7GysqwmZfO-13" edge="1">
          <mxGeometry width="50" height="50" relative="1" as="geometry">
            <mxPoint x="3974" y="852" as="sourcePoint" />
            <mxPoint x="3974" y="882" as="targetPoint" />
          </mxGeometry>
        </mxCell>
        <mxCell id="oV1yNQ3prcVt2Y0p0CIy-84" style="edgeStyle=orthogonalEdgeStyle;rounded=0;orthogonalLoop=1;jettySize=auto;html=1;exitX=1;exitY=0.5;exitDx=0;exitDy=0;endArrow=classic;endFill=1;entryX=0.5;entryY=0;entryDx=0;entryDy=0;" parent="1" source="oV1yNQ3prcVt2Y0p0CIy-86" target="oV1yNQ3prcVt2Y0p0CIy-91" edge="1">
          <mxGeometry relative="1" as="geometry">
            <mxPoint x="1469" y="1468" as="targetPoint" />
          </mxGeometry>
        </mxCell>
        <mxCell id="oV1yNQ3prcVt2Y0p0CIy-85" style="edgeStyle=orthogonalEdgeStyle;html=1;exitX=0.5;exitY=1;exitDx=0;exitDy=0;entryX=0.5;entryY=0;entryDx=0;entryDy=0;endArrow=classic;endFill=1;rounded=0;" parent="1" source="oV1yNQ3prcVt2Y0p0CIy-86" target="oV1yNQ3prcVt2Y0p0CIy-88" edge="1">
          <mxGeometry relative="1" as="geometry" />
        </mxCell>
        <mxCell id="oV1yNQ3prcVt2Y0p0CIy-86" value="Объект обнаружен&lt;div&gt;(dist &amp;lt; 100 &amp;amp;&amp;amp; IoU &amp;lt; 0.4)&lt;/div&gt;" style="shape=rhombus;html=1;dashed=0;whitespace=wrap;perimeter=rhombusPerimeter;" parent="1" vertex="1">
          <mxGeometry x="1211" y="1358" width="200" height="127" as="geometry" />
        </mxCell>
        <mxCell id="oV1yNQ3prcVt2Y0p0CIy-87" value="Да" style="text;html=1;align=center;verticalAlign=middle;resizable=0;points=[];autosize=1;strokeColor=none;" parent="1" vertex="1">
          <mxGeometry x="1421" y="1394" width="30" height="20" as="geometry" />
        </mxCell>
        <mxCell id="oV1yNQ3prcVt2Y0p0CIy-88" value="Присвоение нового id" style="html=1;dashed=0;whitespace=wrap;" parent="1" vertex="1">
          <mxGeometry x="1211" y="1612" width="200" height="60" as="geometry" />
        </mxCell>
        <mxCell id="oV1yNQ3prcVt2Y0p0CIy-89" value="Вычисление метрики dist" style="shape=process;whiteSpace=wrap;html=1;backgroundOutline=1;" parent="1" vertex="1">
          <mxGeometry x="887" y="1518" width="200" height="60" as="geometry" />
        </mxCell>
        <mxCell id="oV1yNQ3prcVt2Y0p0CIy-90" value="Начало" style="html=1;dashed=0;whitespace=wrap;shape=mxgraph.dfd.start" parent="1" vertex="1">
          <mxGeometry x="887" y="1238" width="200" height="60" as="geometry" />
        </mxCell>
        <mxCell id="oV1yNQ3prcVt2Y0p0CIy-91" value="Обновление списка отслеживаемых объектов" style="shape=process;whiteSpace=wrap;html=1;backgroundOutline=1;" parent="1" vertex="1">
          <mxGeometry x="1441" y="1476" width="200" height="60" as="geometry" />
        </mxCell>
        <mxCell id="oV1yNQ3prcVt2Y0p0CIy-92" value="" style="endArrow=classic;html=1;rounded=0;exitX=0.5;exitY=1;exitDx=0;exitDy=0;" parent="1" source="oV1yNQ3prcVt2Y0p0CIy-91" edge="1">
          <mxGeometry width="50" height="50" relative="1" as="geometry">
            <mxPoint x="1093" y="1549" as="sourcePoint" />
            <mxPoint x="1311" y="1582" as="targetPoint" />
            <Array as="points">
              <mxPoint x="1541" y="1580" />
            </Array>
          </mxGeometry>
        </mxCell>
        <mxCell id="oV1yNQ3prcVt2Y0p0CIy-93" value="Удаление не наблюдаемых точек" style="html=1;dashed=0;whitespace=wrap;" parent="1" vertex="1">
          <mxGeometry x="1211" y="1899" width="200" height="60" as="geometry" />
        </mxCell>
        <mxCell id="oV1yNQ3prcVt2Y0p0CIy-94" value="Конец" style="html=1;dashed=0;whitespace=wrap;shape=mxgraph.dfd.start" parent="1" vertex="1">
          <mxGeometry x="1211" y="1993" width="200" height="60" as="geometry" />
        </mxCell>
        <mxCell id="oV1yNQ3prcVt2Y0p0CIy-95" value="Цикл по каждому объекту&lt;div&gt;текущего кадра&lt;/div&gt;" style="shape=loopLimit;whiteSpace=wrap;html=1;strokeWidth=1;direction=west;" parent="1" vertex="1">
          <mxGeometry x="887" y="1325" width="200" height="60" as="geometry" />
        </mxCell>
        <mxCell id="oV1yNQ3prcVt2Y0p0CIy-96" value="Цикл по каждому объекту&lt;div&gt;предыдущего кадра&lt;/div&gt;" style="shape=loopLimit;whiteSpace=wrap;html=1;direction=east" parent="1" vertex="1">
          <mxGeometry x="1211" y="1707" width="200" height="60" as="geometry" />
        </mxCell>
        <mxCell id="oV1yNQ3prcVt2Y0p0CIy-97" value="" style="endArrow=classic;html=1;rounded=0;exitX=0.5;exitY=0.5;exitDx=0;exitDy=30;exitPerimeter=0;entryX=0.5;entryY=1;entryDx=0;entryDy=0;" parent="1" source="oV1yNQ3prcVt2Y0p0CIy-90" target="oV1yNQ3prcVt2Y0p0CIy-95" edge="1">
          <mxGeometry width="50" height="50" relative="1" as="geometry">
            <mxPoint x="1284" y="1355" as="sourcePoint" />
            <mxPoint x="1284" y="1385" as="targetPoint" />
          </mxGeometry>
        </mxCell>
        <mxCell id="oV1yNQ3prcVt2Y0p0CIy-98" value="" style="endArrow=classic;html=1;rounded=0;exitX=0.5;exitY=0;exitDx=0;exitDy=0;entryX=0.5;entryY=1;entryDx=0;entryDy=0;" parent="1" source="oV1yNQ3prcVt2Y0p0CIy-95" target="oV1yNQ3prcVt2Y0p0CIy-103" edge="1">
          <mxGeometry width="50" height="50" relative="1" as="geometry">
            <mxPoint x="1262" y="1359" as="sourcePoint" />
            <mxPoint x="1262" y="1389" as="targetPoint" />
          </mxGeometry>
        </mxCell>
        <mxCell id="oV1yNQ3prcVt2Y0p0CIy-99" value="" style="endArrow=classic;html=1;rounded=0;exitX=0.5;exitY=1;exitDx=0;exitDy=0;entryX=0.5;entryY=0;entryDx=0;entryDy=0;" parent="1" source="oV1yNQ3prcVt2Y0p0CIy-89" target="oV1yNQ3prcVt2Y0p0CIy-105" edge="1">
          <mxGeometry width="50" height="50" relative="1" as="geometry">
            <mxPoint x="1122" y="1504" as="sourcePoint" />
            <mxPoint x="1122" y="1534" as="targetPoint" />
          </mxGeometry>
        </mxCell>
        <mxCell id="oV1yNQ3prcVt2Y0p0CIy-100" value="" style="endArrow=classic;html=1;rounded=0;exitX=0.5;exitY=1;exitDx=0;exitDy=0;entryX=0.5;entryY=0;entryDx=0;entryDy=0;" parent="1" source="oV1yNQ3prcVt2Y0p0CIy-88" target="oV1yNQ3prcVt2Y0p0CIy-96" edge="1">
          <mxGeometry width="50" height="50" relative="1" as="geometry">
            <mxPoint x="1523" y="1727" as="sourcePoint" />
            <mxPoint x="1523" y="1757" as="targetPoint" />
          </mxGeometry>
        </mxCell>
        <mxCell id="oV1yNQ3prcVt2Y0p0CIy-101" value="" style="endArrow=classic;html=1;rounded=0;exitX=0.5;exitY=1;exitDx=0;exitDy=0;entryX=0.5;entryY=0;entryDx=0;entryDy=0;" parent="1" source="oV1yNQ3prcVt2Y0p0CIy-96" target="oV1yNQ3prcVt2Y0p0CIy-110" edge="1">
          <mxGeometry width="50" height="50" relative="1" as="geometry">
            <mxPoint x="1620" y="1734" as="sourcePoint" />
            <mxPoint x="1620" y="1764" as="targetPoint" />
          </mxGeometry>
        </mxCell>
        <mxCell id="oV1yNQ3prcVt2Y0p0CIy-102" value="" style="endArrow=classic;html=1;rounded=0;exitX=0.5;exitY=1;exitDx=0;exitDy=0;entryX=0.5;entryY=0.5;entryDx=0;entryDy=-30;entryPerimeter=0;" parent="1" source="oV1yNQ3prcVt2Y0p0CIy-93" target="oV1yNQ3prcVt2Y0p0CIy-94" edge="1">
          <mxGeometry width="50" height="50" relative="1" as="geometry">
            <mxPoint x="1494" y="1937" as="sourcePoint" />
            <mxPoint x="1494" y="1967" as="targetPoint" />
          </mxGeometry>
        </mxCell>
        <mxCell id="oV1yNQ3prcVt2Y0p0CIy-103" value="Цикл по каждому объекту&lt;div&gt;предыдущего кадра&lt;/div&gt;" style="shape=loopLimit;whiteSpace=wrap;html=1;strokeWidth=1;direction=west;" parent="1" vertex="1">
          <mxGeometry x="887" y="1423" width="200" height="60" as="geometry" />
        </mxCell>
        <mxCell id="oV1yNQ3prcVt2Y0p0CIy-104" value="" style="endArrow=classic;html=1;rounded=0;exitX=0.5;exitY=0;exitDx=0;exitDy=0;entryX=0.5;entryY=0;entryDx=0;entryDy=0;" parent="1" source="oV1yNQ3prcVt2Y0p0CIy-103" target="oV1yNQ3prcVt2Y0p0CIy-89" edge="1">
          <mxGeometry width="50" height="50" relative="1" as="geometry">
            <mxPoint x="1130" y="1626" as="sourcePoint" />
            <mxPoint x="1180" y="1576" as="targetPoint" />
          </mxGeometry>
        </mxCell>
        <mxCell id="oV1yNQ3prcVt2Y0p0CIy-105" value="Вычисление метрики IoU" style="shape=process;whiteSpace=wrap;html=1;backgroundOutline=1;" parent="1" vertex="1">
          <mxGeometry x="887" y="1612" width="200" height="60" as="geometry" />
        </mxCell>
        <mxCell id="oV1yNQ3prcVt2Y0p0CIy-106" value="" style="endArrow=classic;html=1;rounded=0;exitX=0.5;exitY=1;exitDx=0;exitDy=0;entryX=0.5;entryY=0;entryDx=0;entryDy=0;" parent="1" source="oV1yNQ3prcVt2Y0p0CIy-105" target="oV1yNQ3prcVt2Y0p0CIy-107" edge="1">
          <mxGeometry width="50" height="50" relative="1" as="geometry">
            <mxPoint x="1130" y="1658" as="sourcePoint" />
            <mxPoint x="1180" y="1608" as="targetPoint" />
          </mxGeometry>
        </mxCell>
        <mxCell id="oV1yNQ3prcVt2Y0p0CIy-107" value="A" style="ellipse;whiteSpace=wrap;html=1;aspect=fixed;" parent="1" vertex="1">
          <mxGeometry x="947" y="1709" width="80" height="80" as="geometry" />
        </mxCell>
        <mxCell id="oV1yNQ3prcVt2Y0p0CIy-108" value="A" style="ellipse;whiteSpace=wrap;html=1;aspect=fixed;" parent="1" vertex="1">
          <mxGeometry x="1271" y="1238" width="80" height="80" as="geometry" />
        </mxCell>
        <mxCell id="oV1yNQ3prcVt2Y0p0CIy-109" value="" style="endArrow=classic;html=1;rounded=0;exitX=0.5;exitY=1;exitDx=0;exitDy=0;entryX=0.5;entryY=0;entryDx=0;entryDy=0;" parent="1" source="oV1yNQ3prcVt2Y0p0CIy-108" target="oV1yNQ3prcVt2Y0p0CIy-86" edge="1">
          <mxGeometry width="50" height="50" relative="1" as="geometry">
            <mxPoint x="1106" y="1621" as="sourcePoint" />
            <mxPoint x="1156" y="1571" as="targetPoint" />
          </mxGeometry>
        </mxCell>
        <mxCell id="oV1yNQ3prcVt2Y0p0CIy-110" value="Цикл по каждому объекту&lt;div&gt;текущего кадра&lt;/div&gt;" style="shape=loopLimit;whiteSpace=wrap;html=1;direction=east" parent="1" vertex="1">
          <mxGeometry x="1211" y="1800" width="200" height="60" as="geometry" />
        </mxCell>
        <mxCell id="oV1yNQ3prcVt2Y0p0CIy-111" value="" style="endArrow=classic;html=1;rounded=0;exitX=0.5;exitY=1;exitDx=0;exitDy=0;entryX=0.5;entryY=0;entryDx=0;entryDy=0;" parent="1" source="oV1yNQ3prcVt2Y0p0CIy-110" target="oV1yNQ3prcVt2Y0p0CIy-93" edge="1">
          <mxGeometry width="50" height="50" relative="1" as="geometry">
            <mxPoint x="1158" y="1893" as="sourcePoint" />
            <mxPoint x="1208" y="1843" as="targetPoint" />
          </mxGeometry>
        </mxCell>
        <mxCell id="oV1yNQ3prcVt2Y0p0CIy-112" style="edgeStyle=orthogonalEdgeStyle;rounded=0;orthogonalLoop=1;jettySize=auto;html=1;exitX=1;exitY=0.5;exitDx=0;exitDy=0;endArrow=classic;endFill=1;entryX=0.5;entryY=0;entryDx=0;entryDy=0;fontSize=16;" parent="1" source="oV1yNQ3prcVt2Y0p0CIy-114" target="oV1yNQ3prcVt2Y0p0CIy-119" edge="1">
          <mxGeometry relative="1" as="geometry">
            <mxPoint x="2276" y="1458" as="targetPoint" />
          </mxGeometry>
        </mxCell>
        <mxCell id="oV1yNQ3prcVt2Y0p0CIy-113" style="edgeStyle=orthogonalEdgeStyle;html=1;exitX=0.5;exitY=1;exitDx=0;exitDy=0;entryX=0.5;entryY=0;entryDx=0;entryDy=0;endArrow=classic;endFill=1;rounded=0;fontSize=16;" parent="1" source="oV1yNQ3prcVt2Y0p0CIy-114" target="oV1yNQ3prcVt2Y0p0CIy-116" edge="1">
          <mxGeometry relative="1" as="geometry" />
        </mxCell>
        <mxCell id="oV1yNQ3prcVt2Y0p0CIy-114" value="Объект обнаружен&lt;div&gt;(dist &amp;lt; 100 &amp;amp;&amp;amp;&amp;nbsp;&lt;/div&gt;&lt;div&gt;IoU &amp;lt; 0.4)&lt;/div&gt;" style="shape=rhombus;html=1;dashed=0;whitespace=wrap;perimeter=rhombusPerimeter;fontSize=16;" parent="1" vertex="1">
          <mxGeometry x="2018" y="1348" width="200" height="127" as="geometry" />
        </mxCell>
        <mxCell id="oV1yNQ3prcVt2Y0p0CIy-115" value="Да" style="text;html=1;align=center;verticalAlign=middle;resizable=0;points=[];autosize=1;strokeColor=none;fontSize=16;" parent="1" vertex="1">
          <mxGeometry x="2225" y="1380" width="38" height="31" as="geometry" />
        </mxCell>
        <mxCell id="oV1yNQ3prcVt2Y0p0CIy-116" value="Присвоение нового id" style="html=1;dashed=0;whitespace=wrap;fontSize=16;" parent="1" vertex="1">
          <mxGeometry x="2018" y="1578" width="200" height="60" as="geometry" />
        </mxCell>
        <mxCell id="oV1yNQ3prcVt2Y0p0CIy-117" value="Вычисление метрики dist" style="shape=process;whiteSpace=wrap;html=1;backgroundOutline=1;fontSize=16;" parent="1" vertex="1">
          <mxGeometry x="1694" y="1508" width="200" height="60" as="geometry" />
        </mxCell>
        <mxCell id="oV1yNQ3prcVt2Y0p0CIy-118" value="Начало" style="html=1;dashed=0;whitespace=wrap;shape=mxgraph.dfd.start;fontSize=16;" parent="1" vertex="1">
          <mxGeometry x="1694" y="1228" width="200" height="60" as="geometry" />
        </mxCell>
        <mxCell id="oV1yNQ3prcVt2Y0p0CIy-119" value="Обновление списка отслеживаемых объектов" style="shape=process;whiteSpace=wrap;html=1;backgroundOutline=1;fontSize=16;" parent="1" vertex="1">
          <mxGeometry x="2248" y="1466" width="200" height="60" as="geometry" />
        </mxCell>
        <mxCell id="oV1yNQ3prcVt2Y0p0CIy-120" value="" style="endArrow=classic;html=1;rounded=0;exitX=0.5;exitY=1;exitDx=0;exitDy=0;fontSize=16;" parent="1" source="oV1yNQ3prcVt2Y0p0CIy-119" edge="1">
          <mxGeometry width="50" height="50" relative="1" as="geometry">
            <mxPoint x="1900" y="1539" as="sourcePoint" />
            <mxPoint x="2118" y="1547" as="targetPoint" />
            <Array as="points">
              <mxPoint x="2348" y="1547" />
            </Array>
          </mxGeometry>
        </mxCell>
        <mxCell id="oV1yNQ3prcVt2Y0p0CIy-121" value="Удаление не&amp;nbsp;&lt;div&gt;&lt;span style=&quot;background-color: transparent; color: light-dark(rgb(0, 0, 0), rgb(255, 255, 255));&quot;&gt;наблюдаемых&amp;nbsp;&lt;/span&gt;&lt;span style=&quot;background-color: transparent; color: light-dark(rgb(0, 0, 0), rgb(255, 255, 255));&quot;&gt;точек&lt;/span&gt;&lt;/div&gt;" style="html=1;dashed=0;whitespace=wrap;fontSize=16;" parent="1" vertex="1">
          <mxGeometry x="2018" y="1865" width="200" height="60" as="geometry" />
        </mxCell>
        <mxCell id="oV1yNQ3prcVt2Y0p0CIy-122" value="Конец" style="html=1;dashed=0;whitespace=wrap;shape=mxgraph.dfd.start;fontSize=16;" parent="1" vertex="1">
          <mxGeometry x="2018" y="1959" width="200" height="60" as="geometry" />
        </mxCell>
        <mxCell id="oV1yNQ3prcVt2Y0p0CIy-123" value="Цикл по каждому объекту&lt;div&gt;текущего кадра&lt;/div&gt;" style="shape=loopLimit;whiteSpace=wrap;html=1;strokeWidth=1;direction=west;fontSize=16;" parent="1" vertex="1">
          <mxGeometry x="2018" y="1769" width="200" height="60" as="geometry" />
        </mxCell>
        <mxCell id="oV1yNQ3prcVt2Y0p0CIy-124" value="Цикл по каждому объекту&lt;div&gt;предыдущего кадра&lt;/div&gt;" style="shape=loopLimit;whiteSpace=wrap;html=1;direction=east;fontSize=16;" parent="1" vertex="1">
          <mxGeometry x="1694" y="1414" width="200" height="60" as="geometry" />
        </mxCell>
        <mxCell id="oV1yNQ3prcVt2Y0p0CIy-125" value="" style="endArrow=classic;html=1;rounded=0;exitX=0.5;exitY=0.5;exitDx=0;exitDy=30;exitPerimeter=0;entryX=0.5;entryY=0;entryDx=0;entryDy=0;fontSize=16;" parent="1" source="oV1yNQ3prcVt2Y0p0CIy-118" target="oV1yNQ3prcVt2Y0p0CIy-138" edge="1">
          <mxGeometry width="50" height="50" relative="1" as="geometry">
            <mxPoint x="2091" y="1345" as="sourcePoint" />
            <mxPoint x="2091" y="1375" as="targetPoint" />
          </mxGeometry>
        </mxCell>
        <mxCell id="oV1yNQ3prcVt2Y0p0CIy-126" value="" style="endArrow=classic;html=1;rounded=0;exitX=0.5;exitY=1;exitDx=0;exitDy=0;entryX=0.5;entryY=0;entryDx=0;entryDy=0;fontSize=16;" parent="1" source="oV1yNQ3prcVt2Y0p0CIy-138" target="oV1yNQ3prcVt2Y0p0CIy-124" edge="1">
          <mxGeometry width="50" height="50" relative="1" as="geometry">
            <mxPoint x="2069" y="1349" as="sourcePoint" />
            <mxPoint x="2069" y="1379" as="targetPoint" />
          </mxGeometry>
        </mxCell>
        <mxCell id="oV1yNQ3prcVt2Y0p0CIy-127" value="" style="endArrow=classic;html=1;rounded=0;exitX=0.5;exitY=1;exitDx=0;exitDy=0;entryX=0.5;entryY=0;entryDx=0;entryDy=0;fontSize=16;" parent="1" source="oV1yNQ3prcVt2Y0p0CIy-117" target="oV1yNQ3prcVt2Y0p0CIy-133" edge="1">
          <mxGeometry width="50" height="50" relative="1" as="geometry">
            <mxPoint x="1929" y="1494" as="sourcePoint" />
            <mxPoint x="1929" y="1524" as="targetPoint" />
          </mxGeometry>
        </mxCell>
        <mxCell id="oV1yNQ3prcVt2Y0p0CIy-128" value="" style="endArrow=classic;html=1;rounded=0;exitX=0.5;exitY=1;exitDx=0;exitDy=0;entryX=0.5;entryY=1;entryDx=0;entryDy=0;fontSize=16;" parent="1" source="oV1yNQ3prcVt2Y0p0CIy-116" target="oV1yNQ3prcVt2Y0p0CIy-131" edge="1">
          <mxGeometry width="50" height="50" relative="1" as="geometry">
            <mxPoint x="2330" y="1693" as="sourcePoint" />
            <mxPoint x="2330" y="1723" as="targetPoint" />
          </mxGeometry>
        </mxCell>
        <mxCell id="oV1yNQ3prcVt2Y0p0CIy-129" value="" style="endArrow=classic;html=1;rounded=0;exitX=0.5;exitY=0;exitDx=0;exitDy=0;entryX=0.5;entryY=1;entryDx=0;entryDy=0;fontSize=16;" parent="1" source="oV1yNQ3prcVt2Y0p0CIy-131" target="oV1yNQ3prcVt2Y0p0CIy-123" edge="1">
          <mxGeometry width="50" height="50" relative="1" as="geometry">
            <mxPoint x="2427" y="1700" as="sourcePoint" />
            <mxPoint x="2427" y="1730" as="targetPoint" />
          </mxGeometry>
        </mxCell>
        <mxCell id="oV1yNQ3prcVt2Y0p0CIy-130" value="" style="endArrow=classic;html=1;rounded=0;exitX=0.5;exitY=1;exitDx=0;exitDy=0;entryX=0.5;entryY=0.5;entryDx=0;entryDy=-30;entryPerimeter=0;fontSize=16;" parent="1" source="oV1yNQ3prcVt2Y0p0CIy-121" target="oV1yNQ3prcVt2Y0p0CIy-122" edge="1">
          <mxGeometry width="50" height="50" relative="1" as="geometry">
            <mxPoint x="2301" y="1903" as="sourcePoint" />
            <mxPoint x="2301" y="1933" as="targetPoint" />
          </mxGeometry>
        </mxCell>
        <mxCell id="oV1yNQ3prcVt2Y0p0CIy-131" value="Цикл по каждому объекту&lt;div&gt;предыдущего кадра&lt;/div&gt;" style="shape=loopLimit;whiteSpace=wrap;html=1;strokeWidth=1;direction=west;fontSize=16;" parent="1" vertex="1">
          <mxGeometry x="2018" y="1672" width="200" height="60" as="geometry" />
        </mxCell>
        <mxCell id="oV1yNQ3prcVt2Y0p0CIy-132" value="" style="endArrow=classic;html=1;rounded=0;exitX=0.5;exitY=1;exitDx=0;exitDy=0;entryX=0.5;entryY=0;entryDx=0;entryDy=0;fontSize=16;" parent="1" source="oV1yNQ3prcVt2Y0p0CIy-124" target="oV1yNQ3prcVt2Y0p0CIy-117" edge="1">
          <mxGeometry width="50" height="50" relative="1" as="geometry">
            <mxPoint x="1937" y="1616" as="sourcePoint" />
            <mxPoint x="1987" y="1566" as="targetPoint" />
          </mxGeometry>
        </mxCell>
        <mxCell id="oV1yNQ3prcVt2Y0p0CIy-133" value="Вычисление метрики IoU" style="shape=process;whiteSpace=wrap;html=1;backgroundOutline=1;fontSize=16;" parent="1" vertex="1">
          <mxGeometry x="1694" y="1602" width="200" height="60" as="geometry" />
        </mxCell>
        <mxCell id="oV1yNQ3prcVt2Y0p0CIy-134" value="" style="endArrow=classic;html=1;rounded=0;exitX=0.5;exitY=1;exitDx=0;exitDy=0;entryX=0.5;entryY=0;entryDx=0;entryDy=0;fontSize=16;" parent="1" source="oV1yNQ3prcVt2Y0p0CIy-133" target="oV1yNQ3prcVt2Y0p0CIy-135" edge="1">
          <mxGeometry width="50" height="50" relative="1" as="geometry">
            <mxPoint x="1937" y="1648" as="sourcePoint" />
            <mxPoint x="1987" y="1598" as="targetPoint" />
          </mxGeometry>
        </mxCell>
        <mxCell id="oV1yNQ3prcVt2Y0p0CIy-135" value="A" style="ellipse;whiteSpace=wrap;html=1;aspect=fixed;fontSize=16;" parent="1" vertex="1">
          <mxGeometry x="1754" y="1699" width="80" height="80" as="geometry" />
        </mxCell>
        <mxCell id="oV1yNQ3prcVt2Y0p0CIy-136" value="A" style="ellipse;whiteSpace=wrap;html=1;aspect=fixed;fontSize=16;" parent="1" vertex="1">
          <mxGeometry x="2078" y="1228" width="80" height="80" as="geometry" />
        </mxCell>
        <mxCell id="oV1yNQ3prcVt2Y0p0CIy-137" value="" style="endArrow=classic;html=1;rounded=0;exitX=0.5;exitY=1;exitDx=0;exitDy=0;entryX=0.5;entryY=0;entryDx=0;entryDy=0;fontSize=16;" parent="1" source="oV1yNQ3prcVt2Y0p0CIy-136" target="oV1yNQ3prcVt2Y0p0CIy-114" edge="1">
          <mxGeometry width="50" height="50" relative="1" as="geometry">
            <mxPoint x="1913" y="1611" as="sourcePoint" />
            <mxPoint x="1963" y="1561" as="targetPoint" />
          </mxGeometry>
        </mxCell>
        <mxCell id="oV1yNQ3prcVt2Y0p0CIy-138" value="Цикл по каждому объекту&lt;div&gt;текущего кадра&lt;/div&gt;" style="shape=loopLimit;whiteSpace=wrap;html=1;direction=east;fontSize=16;" parent="1" vertex="1">
          <mxGeometry x="1694" y="1320" width="200" height="60" as="geometry" />
        </mxCell>
        <mxCell id="oV1yNQ3prcVt2Y0p0CIy-139" value="" style="endArrow=classic;html=1;rounded=0;exitX=0.5;exitY=0;exitDx=0;exitDy=0;entryX=0.5;entryY=0;entryDx=0;entryDy=0;fontSize=16;" parent="1" source="oV1yNQ3prcVt2Y0p0CIy-123" target="oV1yNQ3prcVt2Y0p0CIy-121" edge="1">
          <mxGeometry width="50" height="50" relative="1" as="geometry">
            <mxPoint x="1965" y="1859" as="sourcePoint" />
            <mxPoint x="2015" y="1809" as="targetPoint" />
          </mxGeometry>
        </mxCell>
        <mxCell id="LZMMXDJ1hkePxHOvZa1q-1" value="" style="endArrow=classic;html=1;rounded=0;exitX=1;exitY=0.5;exitDx=0;exitDy=0;" edge="1" parent="1" source="5S47eN_YAXZxguMYoJv3-58">
          <mxGeometry width="50" height="50" relative="1" as="geometry">
            <mxPoint x="1884" y="615" as="sourcePoint" />
            <mxPoint x="1957" y="747" as="targetPoint" />
            <Array as="points">
              <mxPoint x="2224" y="359" />
              <mxPoint x="2221" y="747" />
            </Array>
          </mxGeometry>
        </mxCell>
        <mxCell id="LZMMXDJ1hkePxHOvZa1q-2" value="" style="endArrow=classic;html=1;rounded=0;exitX=1;exitY=0.5;exitDx=0;exitDy=0;" edge="1" parent="1" source="5S47eN_YAXZxguMYoJv3-74">
          <mxGeometry width="50" height="50" relative="1" as="geometry">
            <mxPoint x="2059" y="577" as="sourcePoint" />
            <mxPoint x="1957" y="732" as="targetPoint" />
            <Array as="points">
              <mxPoint x="2138" y="576" />
              <mxPoint x="2138" y="732" />
            </Array>
          </mxGeometry>
        </mxCell>
        <mxCell id="LZMMXDJ1hkePxHOvZa1q-4" value="" style="endArrow=classic;html=1;rounded=0;exitX=1;exitY=0.5;exitDx=0;exitDy=0;" edge="1" parent="1" source="5S47eN_YAXZxguMYoJv3-83">
          <mxGeometry width="50" height="50" relative="1" as="geometry">
            <mxPoint x="2693" y="620" as="sourcePoint" />
            <mxPoint x="2830" y="786" as="targetPoint" />
            <Array as="points">
              <mxPoint x="3162" y="400" />
              <mxPoint x="3162" y="788" />
            </Array>
          </mxGeometry>
        </mxCell>
        <mxCell id="LZMMXDJ1hkePxHOvZa1q-5" value="" style="endArrow=classic;html=1;rounded=0;exitX=1;exitY=0.5;exitDx=0;exitDy=0;" edge="1" parent="1" source="5S47eN_YAXZxguMYoJv3-95">
          <mxGeometry width="50" height="50" relative="1" as="geometry">
            <mxPoint x="2746" y="620" as="sourcePoint" />
            <mxPoint x="2830" y="763" as="targetPoint" />
            <Array as="points">
              <mxPoint x="3058" y="617" />
              <mxPoint x="3058" y="765" />
            </Array>
          </mxGeometry>
        </mxCell>
        <mxCell id="LZMMXDJ1hkePxHOvZa1q-7" style="edgeStyle=orthogonalEdgeStyle;html=1;exitX=0.5;exitY=1;exitDx=0;exitDy=0;entryX=0.5;entryY=0;entryDx=0;entryDy=0;endArrow=classic;endFill=1;rounded=0;fontSize=16;" edge="1" parent="1" source="LZMMXDJ1hkePxHOvZa1q-8" target="LZMMXDJ1hkePxHOvZa1q-10">
          <mxGeometry relative="1" as="geometry" />
        </mxCell>
        <mxCell id="LZMMXDJ1hkePxHOvZa1q-8" value="Находится ли точка в&amp;nbsp;&lt;div&gt;первом&amp;nbsp;&lt;span style=&quot;background-color: transparent; color: light-dark(rgb(0, 0, 0), rgb(255, 255, 255));&quot;&gt;полигоне&lt;/span&gt;&lt;/div&gt;" style="shape=rhombus;html=1;dashed=0;whitespace=wrap;perimeter=rhombusPerimeter;fontSize=16;" vertex="1" parent="1">
          <mxGeometry x="2700" y="1475" width="230" height="87" as="geometry" />
        </mxCell>
        <mxCell id="LZMMXDJ1hkePxHOvZa1q-9" value="Нет" style="text;html=1;align=center;verticalAlign=middle;resizable=0;points=[];autosize=1;strokeColor=none;fontSize=16;" vertex="1" parent="1">
          <mxGeometry x="2926" y="1490.5" width="45" height="31" as="geometry" />
        </mxCell>
        <mxCell id="LZMMXDJ1hkePxHOvZa1q-10" value="Сохранить координаты в&lt;div&gt;person_entering[id]&lt;/div&gt;" style="html=1;dashed=0;whitespace=wrap;fontSize=16;" vertex="1" parent="1">
          <mxGeometry x="2700" y="1596" width="230" height="60" as="geometry" />
        </mxCell>
        <mxCell id="LZMMXDJ1hkePxHOvZa1q-12" value="Начало" style="html=1;dashed=0;whitespace=wrap;shape=mxgraph.dfd.start;fontSize=16;" vertex="1" parent="1">
          <mxGeometry x="2700" y="1288" width="230" height="60" as="geometry" />
        </mxCell>
        <mxCell id="LZMMXDJ1hkePxHOvZa1q-15" value="" style="endArrow=classic;html=1;rounded=0;entryX=0.5;entryY=0;entryDx=0;entryDy=0;exitX=0.5;exitY=1;exitDx=0;exitDy=0;fontSize=16;" edge="1" parent="1" source="LZMMXDJ1hkePxHOvZa1q-10" target="LZMMXDJ1hkePxHOvZa1q-17">
          <mxGeometry width="50" height="50" relative="1" as="geometry">
            <mxPoint x="2582" y="1649" as="sourcePoint" />
            <mxPoint x="2800" y="1768" as="targetPoint" />
          </mxGeometry>
        </mxCell>
        <mxCell id="LZMMXDJ1hkePxHOvZa1q-16" value="Конец" style="html=1;dashed=0;whitespace=wrap;shape=mxgraph.dfd.start;fontSize=16;" vertex="1" parent="1">
          <mxGeometry x="2700" y="1939" width="230" height="60" as="geometry" />
        </mxCell>
        <mxCell id="LZMMXDJ1hkePxHOvZa1q-17" value="id находится в&amp;nbsp;&lt;div&gt;person_entering&amp;nbsp;&lt;span style=&quot;background-color: transparent; color: light-dark(rgb(0, 0, 0), rgb(255, 255, 255));&quot;&gt;&amp;amp;&amp;amp; точка в&lt;/span&gt;&lt;div&gt;2-ом полигоне&lt;/div&gt;&lt;/div&gt;" style="shape=rhombus;html=1;dashed=0;whitespace=wrap;perimeter=rhombusPerimeter;fontSize=16;" vertex="1" parent="1">
          <mxGeometry x="2700" y="1688" width="230" height="95" as="geometry" />
        </mxCell>
        <mxCell id="LZMMXDJ1hkePxHOvZa1q-18" value="Нет" style="text;html=1;align=center;verticalAlign=middle;resizable=0;points=[];autosize=1;strokeColor=none;fontSize=16;" vertex="1" parent="1">
          <mxGeometry x="2930" y="1707" width="45" height="31" as="geometry" />
        </mxCell>
        <mxCell id="LZMMXDJ1hkePxHOvZa1q-19" value="Увеличить count_enter&lt;div&gt;на единицу&lt;div&gt;&lt;br&gt;&lt;/div&gt;&lt;/div&gt;" style="html=1;dashed=0;whitespace=wrap;fontSize=16;" vertex="1" parent="1">
          <mxGeometry x="2700" y="1813" width="230" height="60" as="geometry" />
        </mxCell>
        <mxCell id="LZMMXDJ1hkePxHOvZa1q-20" value="" style="endArrow=classic;html=1;rounded=0;exitX=0.5;exitY=0.5;exitDx=0;exitDy=30;exitPerimeter=0;entryX=0.5;entryY=0;entryDx=0;entryDy=0;fontSize=16;" edge="1" parent="1" source="LZMMXDJ1hkePxHOvZa1q-12">
          <mxGeometry width="50" height="50" relative="1" as="geometry">
            <mxPoint x="3082" y="1538" as="sourcePoint" />
            <mxPoint x="2815" y="1383" as="targetPoint" />
          </mxGeometry>
        </mxCell>
        <mxCell id="LZMMXDJ1hkePxHOvZa1q-21" value="" style="endArrow=classic;html=1;rounded=0;exitX=0.5;exitY=1;exitDx=0;exitDy=0;entryX=0.5;entryY=0;entryDx=0;entryDy=0;fontSize=16;" edge="1" parent="1" target="LZMMXDJ1hkePxHOvZa1q-8">
          <mxGeometry width="50" height="50" relative="1" as="geometry">
            <mxPoint x="2815" y="1443" as="sourcePoint" />
            <mxPoint x="2900" y="1598" as="targetPoint" />
          </mxGeometry>
        </mxCell>
        <mxCell id="LZMMXDJ1hkePxHOvZa1q-22" value="" style="endArrow=classic;html=1;rounded=0;exitX=0.5;exitY=1;exitDx=0;exitDy=0;entryX=0.5;entryY=0;entryDx=0;entryDy=0;fontSize=16;" edge="1" parent="1" source="LZMMXDJ1hkePxHOvZa1q-17" target="LZMMXDJ1hkePxHOvZa1q-19">
          <mxGeometry width="50" height="50" relative="1" as="geometry">
            <mxPoint x="2815" y="1788.9999999999995" as="sourcePoint" />
            <mxPoint x="2950" y="1718" as="targetPoint" />
          </mxGeometry>
        </mxCell>
        <mxCell id="LZMMXDJ1hkePxHOvZa1q-23" value="" style="endArrow=classic;html=1;rounded=0;exitX=0.5;exitY=1;exitDx=0;exitDy=0;entryX=0.5;entryY=0.5;entryDx=0;entryDy=-30;entryPerimeter=0;fontSize=16;" edge="1" parent="1" source="LZMMXDJ1hkePxHOvZa1q-19" target="LZMMXDJ1hkePxHOvZa1q-16">
          <mxGeometry width="50" height="50" relative="1" as="geometry">
            <mxPoint x="2945" y="1832" as="sourcePoint" />
            <mxPoint x="2945" y="1862" as="targetPoint" />
          </mxGeometry>
        </mxCell>
        <mxCell id="LZMMXDJ1hkePxHOvZa1q-24" value="" style="endArrow=classic;html=1;rounded=0;exitX=1;exitY=0.5;exitDx=0;exitDy=0;fontSize=16;" edge="1" parent="1" source="LZMMXDJ1hkePxHOvZa1q-8">
          <mxGeometry width="50" height="50" relative="1" as="geometry">
            <mxPoint x="2727" y="1774" as="sourcePoint" />
            <mxPoint x="2815" y="1906" as="targetPoint" />
            <Array as="points">
              <mxPoint x="3067" y="1518" />
              <mxPoint x="3064" y="1906" />
            </Array>
          </mxGeometry>
        </mxCell>
        <mxCell id="LZMMXDJ1hkePxHOvZa1q-25" value="" style="endArrow=classic;html=1;rounded=0;exitX=1;exitY=0.5;exitDx=0;exitDy=0;fontSize=16;" edge="1" parent="1" source="LZMMXDJ1hkePxHOvZa1q-17">
          <mxGeometry width="50" height="50" relative="1" as="geometry">
            <mxPoint x="2902" y="1736" as="sourcePoint" />
            <mxPoint x="2815" y="1891" as="targetPoint" />
            <Array as="points">
              <mxPoint x="2981" y="1735" />
              <mxPoint x="2981" y="1891" />
            </Array>
          </mxGeometry>
        </mxCell>
        <mxCell id="LZMMXDJ1hkePxHOvZa1q-26" style="edgeStyle=orthogonalEdgeStyle;html=1;exitX=0.5;exitY=1;exitDx=0;exitDy=0;entryX=0.5;entryY=0;entryDx=0;entryDy=0;endArrow=classic;endFill=1;rounded=0;fontSize=16;" edge="1" parent="1" source="LZMMXDJ1hkePxHOvZa1q-27" target="LZMMXDJ1hkePxHOvZa1q-29">
          <mxGeometry relative="1" as="geometry" />
        </mxCell>
        <mxCell id="LZMMXDJ1hkePxHOvZa1q-27" value="Находится ли точка в&amp;nbsp;&lt;div&gt;втором&amp;nbsp;&lt;span style=&quot;background-color: transparent; color: light-dark(rgb(0, 0, 0), rgb(255, 255, 255));&quot;&gt;полигоне&lt;/span&gt;&lt;/div&gt;" style="shape=rhombus;html=1;dashed=0;whitespace=wrap;perimeter=rhombusPerimeter;fontSize=16;" vertex="1" parent="1">
          <mxGeometry x="3506" y="1465" width="230" height="94" as="geometry" />
        </mxCell>
        <mxCell id="LZMMXDJ1hkePxHOvZa1q-28" value="Нет" style="text;html=1;align=center;verticalAlign=middle;resizable=0;points=[];autosize=1;strokeColor=none;fontSize=16;" vertex="1" parent="1">
          <mxGeometry x="3738" y="1480.5" width="45" height="31" as="geometry" />
        </mxCell>
        <mxCell id="LZMMXDJ1hkePxHOvZa1q-29" value="Сохранить координаты в&lt;div&gt;person_exting[id]&lt;/div&gt;" style="html=1;dashed=0;whitespace=wrap;fontSize=16;" vertex="1" parent="1">
          <mxGeometry x="3506" y="1589.5" width="230" height="60" as="geometry" />
        </mxCell>
        <mxCell id="LZMMXDJ1hkePxHOvZa1q-31" value="Начало" style="html=1;dashed=0;whitespace=wrap;shape=mxgraph.dfd.start;fontSize=16;" vertex="1" parent="1">
          <mxGeometry x="3506" y="1281.5" width="230" height="60" as="geometry" />
        </mxCell>
        <mxCell id="LZMMXDJ1hkePxHOvZa1q-34" value="" style="endArrow=classic;html=1;rounded=0;entryX=0.5;entryY=0;entryDx=0;entryDy=0;exitX=0.5;exitY=1;exitDx=0;exitDy=0;fontSize=16;" edge="1" parent="1" source="LZMMXDJ1hkePxHOvZa1q-29" target="LZMMXDJ1hkePxHOvZa1q-36">
          <mxGeometry width="50" height="50" relative="1" as="geometry">
            <mxPoint x="3388" y="1642.5" as="sourcePoint" />
            <mxPoint x="3606" y="1761.5" as="targetPoint" />
          </mxGeometry>
        </mxCell>
        <mxCell id="LZMMXDJ1hkePxHOvZa1q-35" value="Конец" style="html=1;dashed=0;whitespace=wrap;shape=mxgraph.dfd.start;fontSize=16;" vertex="1" parent="1">
          <mxGeometry x="3506" y="1933" width="230" height="60" as="geometry" />
        </mxCell>
        <mxCell id="LZMMXDJ1hkePxHOvZa1q-36" value="id находится в&amp;nbsp;&lt;div&gt;person_exiting&amp;nbsp;&lt;span style=&quot;background-color: transparent; color: light-dark(rgb(0, 0, 0), rgb(255, 255, 255));&quot;&gt;&amp;amp;&amp;amp; точка в&lt;/span&gt;&lt;div&gt;1-ом полигоне&lt;/div&gt;&lt;/div&gt;" style="shape=rhombus;html=1;dashed=0;whitespace=wrap;perimeter=rhombusPerimeter;fontSize=16;" vertex="1" parent="1">
          <mxGeometry x="3506" y="1681" width="230" height="92" as="geometry" />
        </mxCell>
        <mxCell id="LZMMXDJ1hkePxHOvZa1q-37" value="Нет" style="text;html=1;align=center;verticalAlign=middle;resizable=0;points=[];autosize=1;strokeColor=none;fontSize=16;" vertex="1" parent="1">
          <mxGeometry x="3736" y="1699" width="45" height="31" as="geometry" />
        </mxCell>
        <mxCell id="LZMMXDJ1hkePxHOvZa1q-38" value="Увеличить count_exit&lt;div&gt;на единицу&lt;div&gt;&lt;br&gt;&lt;/div&gt;&lt;/div&gt;" style="html=1;dashed=0;whitespace=wrap;fontSize=16;" vertex="1" parent="1">
          <mxGeometry x="3506" y="1800" width="230" height="60" as="geometry" />
        </mxCell>
        <mxCell id="LZMMXDJ1hkePxHOvZa1q-39" value="" style="endArrow=classic;html=1;rounded=0;exitX=0.5;exitY=0.5;exitDx=0;exitDy=30;exitPerimeter=0;entryX=0.5;entryY=0;entryDx=0;entryDy=0;fontSize=16;" edge="1" parent="1" source="LZMMXDJ1hkePxHOvZa1q-31">
          <mxGeometry width="50" height="50" relative="1" as="geometry">
            <mxPoint x="3713" y="1267.5" as="sourcePoint" />
            <mxPoint x="3620.999999999999" y="1376.5" as="targetPoint" />
          </mxGeometry>
        </mxCell>
        <mxCell id="LZMMXDJ1hkePxHOvZa1q-40" value="" style="endArrow=classic;html=1;rounded=0;exitX=0.5;exitY=1;exitDx=0;exitDy=0;fontSize=16;" edge="1" parent="1" target="LZMMXDJ1hkePxHOvZa1q-27">
          <mxGeometry width="50" height="50" relative="1" as="geometry">
            <mxPoint x="3620.999999999999" y="1436.5" as="sourcePoint" />
            <mxPoint x="3759" y="1516.5" as="targetPoint" />
          </mxGeometry>
        </mxCell>
        <mxCell id="LZMMXDJ1hkePxHOvZa1q-41" value="" style="endArrow=classic;html=1;rounded=0;exitX=0.5;exitY=1;exitDx=0;exitDy=0;entryX=0.5;entryY=0;entryDx=0;entryDy=0;fontSize=16;" edge="1" parent="1" source="LZMMXDJ1hkePxHOvZa1q-36" target="LZMMXDJ1hkePxHOvZa1q-38">
          <mxGeometry width="50" height="50" relative="1" as="geometry">
            <mxPoint x="3754" y="1584.5" as="sourcePoint" />
            <mxPoint x="3754" y="1614.5" as="targetPoint" />
          </mxGeometry>
        </mxCell>
        <mxCell id="LZMMXDJ1hkePxHOvZa1q-42" value="" style="endArrow=classic;html=1;rounded=0;exitX=0.5;exitY=1;exitDx=0;exitDy=0;entryX=0.5;entryY=0.5;entryDx=0;entryDy=-30;entryPerimeter=0;fontSize=16;" edge="1" parent="1" source="LZMMXDJ1hkePxHOvZa1q-38" target="LZMMXDJ1hkePxHOvZa1q-35">
          <mxGeometry width="50" height="50" relative="1" as="geometry">
            <mxPoint x="3873" y="1783" as="sourcePoint" />
            <mxPoint x="3873" y="1813" as="targetPoint" />
          </mxGeometry>
        </mxCell>
        <mxCell id="LZMMXDJ1hkePxHOvZa1q-43" value="" style="endArrow=classic;html=1;rounded=0;exitX=1;exitY=0.5;exitDx=0;exitDy=0;fontSize=16;" edge="1" parent="1">
          <mxGeometry width="50" height="50" relative="1" as="geometry">
            <mxPoint x="3734" y="1512" as="sourcePoint" />
            <mxPoint x="3622" y="1898" as="targetPoint" />
            <Array as="points">
              <mxPoint x="3936" y="1511.5" />
              <mxPoint x="3936" y="1899.5" />
            </Array>
          </mxGeometry>
        </mxCell>
        <mxCell id="LZMMXDJ1hkePxHOvZa1q-44" value="" style="endArrow=classic;html=1;rounded=0;exitX=1;exitY=0.5;exitDx=0;exitDy=0;fontSize=16;" edge="1" parent="1">
          <mxGeometry width="50" height="50" relative="1" as="geometry">
            <mxPoint x="3735" y="1727" as="sourcePoint" />
            <mxPoint x="3622" y="1877" as="targetPoint" />
            <Array as="points">
              <mxPoint x="3833" y="1728.5" />
              <mxPoint x="3833" y="1876.5" />
            </Array>
          </mxGeometry>
        </mxCell>
        <mxCell id="LZMMXDJ1hkePxHOvZa1q-45" value="&lt;span style=&quot;text-wrap-mode: wrap;&quot;&gt;Вычислить центр нового объекта&lt;/span&gt;" style="html=1;dashed=0;whitespace=wrap;align=center;verticalAlign=middle;whiteSpace=wrap;" vertex="1" parent="1">
          <mxGeometry x="1032" y="374" width="200" height="60" as="geometry" />
        </mxCell>
        <mxCell id="LZMMXDJ1hkePxHOvZa1q-46" value="Получить координаты центра окна" style="html=1;dashed=0;whitespace=wrap;align=center;verticalAlign=middle;whiteSpace=wrap;" vertex="1" parent="1">
          <mxGeometry x="1857" y="224" width="200" height="60" as="geometry" />
        </mxCell>
        <mxCell id="LZMMXDJ1hkePxHOvZa1q-47" value="Получить координаты центра окна" style="html=1;dashed=0;whitespace=wrap;align=center;verticalAlign=middle;whiteSpace=wrap;" vertex="1" parent="1">
          <mxGeometry x="2730" y="264" width="200" height="60" as="geometry" />
        </mxCell>
        <mxCell id="LZMMXDJ1hkePxHOvZa1q-48" value="&lt;span style=&quot;font-size: 16px;&quot;&gt;Получить координаты центра окна&lt;/span&gt;" style="rounded=0;whiteSpace=wrap;html=1;" vertex="1" parent="1">
          <mxGeometry x="2700" y="1381.5" width="230" height="60" as="geometry" />
        </mxCell>
        <mxCell id="LZMMXDJ1hkePxHOvZa1q-49" value="&lt;span style=&quot;font-size: 16px;&quot;&gt;Получить координаты центра окна&lt;/span&gt;" style="rounded=0;whiteSpace=wrap;html=1;" vertex="1" parent="1">
          <mxGeometry x="3506" y="1374" width="230" height="60" as="geometry" />
        </mxCell>
      </root>
    </mxGraphModel>
  </diagram>
</mxfile>
